<?xml version="1.0" standalone="no"?>
<!DOCTYPE svg PUBLIC "-//W3C//DTD SVG 20010904//EN"
 "http://www.w3.org/TR/2001/REC-SVG-20010904/DTD/svg10.dtd">
<svg version="1.0" xmlns="http://www.w3.org/2000/svg"
 width="1048.000000pt" height="626.000000pt" viewBox="0 0 1048.000000 626.000000"
 preserveAspectRatio="xMidYMid meet">

<g transform="translate(0.000000,626.000000) scale(0.100000,-0.100000)"
fill="#000000" stroke="none">
<path d="M0 3130 l0 -3130 5240 0 5240 0 0 3130 0 3130 -5240 0 -5240 0 0
-3130z m2214 2622 c4 -6 10 -880 7 -985 -1 -29 -34 -67 -80 -90 -23 -12 -80
-45 -259 -149 -26 -16 -73 -42 -104 -59 -32 -18 -58 -36 -58 -41 0 -5 -4 -7
-8 -4 -5 3 -25 -6 -45 -19 -20 -14 -38 -25 -41 -25 -3 0 -35 -18 -70 -40 -121
-74 -167 -93 -182 -78 -11 11 -14 107 -16 510 -3 477 -2 497 16 517 11 12 65
47 120 79 415 240 521 301 591 343 77 45 118 58 129 41z m2854 -114 c9 -9 12
-90 12 -303 0 -273 -1 -293 -19 -309 -17 -15 -159 -100 -299 -178 -84 -47 -82
-54 -82 281 0 231 3 290 14 307 8 11 68 51 133 89 65 37 138 81 163 96 51 32
61 34 78 17z m821 -599 c58 -34 118 -70 133 -80 15 -11 30 -19 33 -19 3 0 35
-18 71 -40 36 -22 68 -40 70 -40 2 0 41 -22 86 -49 46 -27 127 -74 181 -106
154 -89 138 -14 135 -623 -3 -468 -5 -526 -19 -535 -12 -8 -63 17 -230 113
-118 68 -234 134 -259 148 -25 14 -72 42 -105 62 -33 20 -95 55 -137 79 -43
23 -85 52 -93 64 -13 18 -15 93 -15 535 0 505 3 552 32 552 6 0 59 -28 117
-61z m2491 -160 c58 -33 112 -64 120 -69 75 -46 148 -87 162 -93 9 -3 24 -20
33 -36 13 -25 14 -67 11 -268 -2 -131 -4 -241 -5 -244 -2 -16 -35 -18 -62 -4
-16 9 -32 16 -36 16 -5 0 -16 8 -25 16 -10 9 -18 13 -18 10 0 -4 -9 1 -20 10
-21 19 -95 62 -150 89 -19 10 -43 24 -52 32 -10 8 -18 12 -18 8 0 -4 -10 2
-22 14 -20 19 -40 25 -63 20 -5 -1 -7 2 -3 5 4 4 1 19 -6 34 -20 40 -16 508 4
521 19 13 25 10 150 -61z m-3956 -15 c3 -9 6 -144 6 -300 0 -156 2 -284 5
-284 3 0 27 14 53 30 98 60 102 52 102 -191 0 -109 -4 -209 -9 -222 -12 -31
-263 -180 -295 -175 -19 3 -21 11 -26 95 l-5 91 -165 -94 c-92 -53 -174 -94
-185 -92 -20 3 -20 10 -23 429 -2 402 -1 427 16 442 30 27 485 286 503 287 9
0 20 -7 23 -16z m919 -121 c41 -21 52 -36 73 -101 l17 -53 -25 -24 c-15 -13
-32 -40 -38 -60 -11 -33 -10 -39 10 -60 14 -15 21 -36 22 -65 0 -36 3 -41 19
-37 16 4 19 -1 19 -37 0 -43 -15 -66 -52 -79 -22 -8 -44 19 -40 49 2 13 -1 24
-6 24 -11 0 -40 -32 -41 -45 -1 -5 -5 -10 -10 -10 -6 0 -16 -6 -22 -12 -7 -7
-18 -13 -23 -13 -9 0 -41 59 -51 93 -1 4 -4 10 -5 15 -1 4 -2 10 -1 14 0 3
-10 17 -23 29 -25 24 -66 36 -66 18 0 -5 4 -8 8 -5 5 3 9 -1 9 -8 0 -21 -23
-14 -25 8 -1 25 30 60 69 77 33 13 37 11 42 -17 4 -24 26 -63 27 -46 0 7 4 11
9 8 5 -3 15 2 22 12 7 9 10 14 5 10 -15 -12 -55 33 -49 56 13 50 8 131 -9 155
-17 22 -17 24 1 50 30 42 64 67 94 70 4 1 22 -6 40 -16z m221 -402 c-3 -9 -7
-22 -8 -29 -1 -7 -7 -17 -12 -22 -11 -11 -19 64 -9 81 10 16 37 -12 29 -30z
m-394 13 c8 -8 9 -14 3 -12 -6 2 -11 -1 -12 -7 -1 -5 4 -10 9 -10 6 0 10 -4
11 -10 0 -5 6 -16 12 -23 6 -7 6 -12 1 -10 -5 2 -9 -1 -9 -7 0 -5 3 -9 8 -7 4
1 6 -4 5 -10 -2 -7 2 -12 8 -11 6 1 11 -4 11 -12 0 -8 -4 -13 -8 -12 -4 1 -7
-2 -7 -8 0 -5 4 -9 9 -7 5 1 8 -4 7 -10 -2 -7 3 -12 10 -10 6 1 11 -1 10 -5
-2 -5 2 -9 7 -10 6 -2 10 6 10 17 0 20 19 44 36 46 5 1 10 2 12 4 13 10 39 4
54 -13 10 -11 12 -17 4 -12 -10 6 -12 4 -6 -5 6 -9 4 -11 -5 -5 -9 6 -11 4 -5
-5 6 -9 4 -11 -5 -5 -9 5 -11 4 -6 -4 5 -7 2 -10 -6 -9 -7 2 -12 -3 -10 -10 1
-8 -2 -11 -8 -7 -5 3 -10 -1 -10 -9 0 -9 -5 -15 -12 -13 -7 1 -12 -3 -13 -10
0 -17 -14 -28 -38 -28 -13 -1 -21 -6 -19 -14 1 -7 -2 -10 -8 -6 -6 3 -7 11 -4
17 5 7 2 8 -6 3 -9 -6 -11 -4 -5 5 6 9 4 11 -5 5 -9 -6 -11 -4 -5 5 6 9 4 11
-5 5 -8 -5 -11 -4 -6 3 3 6 2 14 -4 17 -8 5 -8 11 0 20 7 8 7 15 1 19 -5 4
-12 2 -16 -4 -4 -6 -12 -7 -18 -3 -7 3 -3 -3 7 -15 11 -12 15 -22 11 -22 -4 0
-1 -8 8 -17 8 -10 16 -22 16 -28 1 -5 4 -10 9 -11 4 0 15 -4 25 -9 12 -5 25
-1 41 14 12 12 26 18 29 14 4 -3 7 0 7 8 0 8 23 37 50 64 35 34 50 44 50 32 0
-20 8 -21 44 -7 14 5 25 6 23 2 -1 -4 3 -7 8 -7 6 0 9 3 8 7 -2 5 3 7 10 5 6
-1 11 3 10 9 -1 6 4 11 11 11 7 0 13 -6 13 -13 0 -7 -3 -12 -6 -11 -3 1 -6 -2
-6 -8 0 -5 3 -9 8 -7 13 4 8 -4 -21 -32 -27 -25 -30 -26 -43 -9 -13 16 -12 17
4 4 9 -7 17 -11 17 -7 0 16 -3 21 -12 18 -5 -1 -7 2 -4 7 4 5 2 13 -4 16 -6 4
-10 3 -9 -2 1 -4 1 -10 0 -13 -1 -3 -3 -32 -4 -65 -1 -33 -6 -66 -11 -74 -19
-29 -90 -51 -168 -51 -126 0 -141 15 -137 140 1 37 -1 72 -5 79 -4 6 -4 10 1
9 4 -2 9 2 11 7 1 6 -4 10 -10 10 -7 0 -13 5 -13 10 0 6 -3 15 -7 21 -4 6 -1
11 7 11 8 0 13 -3 12 -6 -1 -3 3 -7 8 -7 6 -1 9 2 8 7 -2 5 1 8 6 7 5 -2 8 2
8 7 -1 6 -5 9 -9 8 -5 -2 -7 1 -5 6 1 5 -2 8 -8 8 -5 -1 -9 -5 -8 -8 1 -3 -4
-6 -11 -6 -7 0 -13 6 -13 13 0 7 5 12 11 11 6 -1 10 4 9 11 -2 6 3 11 10 10 6
-2 11 3 10 10 -2 6 3 11 10 10 6 -2 11 3 10 10 -4 16 2 15 17 -4z m167 -77 c0
-8 -6 -14 -14 -14 -9 0 -10 4 -2 14 6 7 12 13 14 13 1 0 2 -6 2 -13z m2471
-53 c53 -31 122 -71 152 -89 30 -18 80 -47 110 -64 48 -27 165 -95 218 -126
19 -11 237 -135 310 -176 26 -15 59 -38 75 -52 l27 -25 -2 -353 c-3 -345 -3
-354 -23 -357 -20 -2 -102 42 -440 239 -99 58 -264 154 -366 213 -126 73 -191
116 -198 133 -14 31 -15 651 -1 687 5 14 16 26 25 26 8 0 59 -25 113 -56z
m-6747 -62 c5 -405 4 -511 -4 -535 -10 -31 -59 -66 -192 -137 -44 -24 -87 -49
-96 -56 -8 -8 -18 -14 -21 -14 -4 0 -45 -23 -94 -51 -67 -40 -91 -50 -103 -42
-14 9 -16 48 -19 308 -3 342 -11 312 98 375 447 262 429 256 431 152z m2078
-223 c89 -27 204 -153 252 -277 32 -83 37 -196 12 -254 -22 -49 -67 -78 -121
-78 -28 0 -33 -6 -58 -60 -15 -33 -31 -60 -36 -60 -11 0 -22 27 -48 117 -16
52 -35 88 -70 132 -202 252 -160 549 69 480z m2017 -19 c-1 -16 4 -29 9 -29 6
1 9 5 8 10 -2 5 1 8 6 7 5 -2 8 2 8 7 -1 6 -6 9 -10 7 -5 -1 -6 2 -2 8 5 8 11
8 20 0 10 -8 15 -8 20 0 5 8 10 8 20 0 10 -8 15 -8 20 0 5 8 10 8 20 0 10 -8
15 -8 20 0 5 8 11 8 19 1 7 -6 15 -9 18 -6 2 3 5 -1 5 -9 0 -8 -4 -14 -8 -13
-4 1 -6 -2 -5 -8 0 -5 4 -9 7 -8 3 1 6 -4 6 -12 0 -8 -3 -13 -6 -12 -3 1 -6
-2 -6 -8 0 -5 4 -9 10 -7 5 2 2 -5 -8 -16 -9 -10 -14 -22 -10 -26 5 -4 4 -6
-2 -4 -5 2 -10 -1 -10 -7 0 -5 3 -9 6 -8 3 1 6 -4 6 -12 0 -8 -3 -13 -6 -12
-3 1 -6 -2 -6 -8 0 -5 3 -9 6 -8 3 1 6 -4 6 -12 0 -8 -3 -13 -6 -12 -3 1 -6
-2 -6 -8 0 -5 4 -9 10 -7 5 2 2 -5 -8 -16 -9 -10 -14 -22 -10 -26 5 -4 1 -6
-7 -4 -16 3 -22 -39 -8 -59 5 -6 5 -14 0 -17 -5 -3 -8 -19 -7 -35 1 -17 -1
-29 -5 -28 -5 1 -8 -2 -8 -8 0 -5 3 -9 7 -8 4 1 8 -4 8 -12 0 -8 -4 -13 -8
-12 -4 1 -7 -2 -7 -8 0 -5 5 -9 11 -7 6 2 3 -5 -6 -16 -13 -14 -15 -22 -7 -27
8 -5 8 -11 1 -19 -6 -7 -7 -16 -3 -20 4 -4 2 -6 -4 -4 -7 2 -12 -1 -12 -7 0
-5 3 -9 7 -8 4 1 8 -4 8 -12 0 -8 -5 -13 -11 -12 -6 1 -10 -3 -9 -9 1 -6 -4
-11 -12 -11 -8 0 -13 4 -12 8 1 4 -2 6 -8 6 -5 -1 -8 -6 -7 -12 2 -5 0 -7 -4
-2 -4 4 -18 -2 -30 -14 -14 -13 -24 -17 -29 -10 -3 7 -2 10 3 9 6 -2 10 2 10
7 0 6 -3 9 -7 8 -4 -1 -8 4 -8 12 0 8 4 13 8 12 4 -1 7 3 7 8 0 6 -4 9 -9 7
-14 -3 -11 4 7 18 8 8 14 9 12 4 -2 -5 2 -9 7 -9 6 0 9 3 7 8 -1 4 1 6 5 5 5
-2 8 2 8 7 0 6 -3 9 -6 8 -3 -1 -6 4 -6 12 0 8 3 13 6 12 3 -1 6 3 6 8 0 6 -3
9 -8 7 -4 -1 -6 1 -5 5 2 5 -1 8 -7 8 -5 0 -9 -4 -7 -8 1 -5 -2 -6 -8 -2 -8 5
-8 11 -1 19 6 7 7 16 3 20 -4 4 0 6 8 4 8 -1 14 3 12 10 -1 6 1 11 5 10 5 -2
8 2 8 7 0 6 -3 9 -6 8 -3 -1 -6 4 -6 12 0 8 3 13 6 12 3 -1 6 3 6 8 0 6 -3 9
-6 8 -3 -1 -6 4 -6 12 0 8 3 13 6 12 3 -1 6 3 6 8 0 6 -3 9 -7 8 -5 -2 -7 0
-7 5 1 4 1 10 0 15 -1 9 -90 -35 -116 -60 -12 -10 -27 -19 -34 -21 -17 -4
-196 -108 -213 -125 -8 -7 -20 -13 -28 -15 -8 -2 -18 -8 -21 -14 -3 -5 -10
-10 -15 -10 -15 1 -84 -41 -84 -50 0 -5 -4 -7 -9 -3 -5 3 -16 -1 -24 -9 -8 -8
-17 -13 -19 -10 -3 2 -11 -2 -18 -11 -7 -8 -16 -15 -21 -15 -5 0 -28 -12 -52
-27 -23 -15 -51 -32 -62 -38 -24 -14 -90 -51 -168 -95 -32 -18 -56 -37 -54
-44 3 -9 71 -53 182 -116 17 -9 77 -44 135 -77 58 -34 130 -75 160 -92 69 -39
186 -107 225 -130 17 -10 57 -33 90 -51 33 -18 76 -43 95 -55 37 -23 129 -75
133 -75 1 0 11 16 22 36 10 19 31 42 46 50 37 18 103 18 144 -1 36 -18 8 -31
275 125 100 59 335 195 388 225 135 77 272 158 272 161 0 5 -61 43 -130 81
-30 17 -82 46 -115 65 -33 19 -67 37 -75 41 -8 4 -28 16 -45 27 -16 11 -37 23
-45 27 -13 6 -118 67 -160 93 -17 10 -146 85 -202 116 -21 12 -45 27 -53 34
-8 7 -15 9 -15 5 0 -5 -8 -1 -17 7 -10 8 -39 28 -65 43 -27 15 -48 33 -48 41
0 14 49 -7 115 -49 34 -21 88 -53 150 -87 33 -18 74 -41 90 -51 17 -10 50 -30
75 -44 25 -14 68 -39 95 -55 28 -16 68 -38 90 -49 22 -12 63 -35 90 -52 28
-18 68 -42 90 -54 188 -107 212 -127 185 -159 -11 -15 -98 -67 -410 -246 -272
-156 -334 -194 -338 -202 -2 -5 -8 -8 -13 -8 -5 0 -34 -14 -64 -31 l-55 -31
55 -60 c53 -56 135 -204 135 -241 0 -9 4 -18 8 -21 15 -9 -4 -171 -24 -201
-20 -31 -69 -55 -112 -55 -26 0 -32 -7 -56 -61 -15 -33 -33 -58 -39 -56 -6 2
-26 50 -44 108 -18 57 -39 108 -46 114 -24 18 -87 106 -107 150 -27 58 -50
151 -50 197 0 36 -2 38 -92 91 -51 30 -115 67 -143 82 -27 16 -67 39 -87 52
-21 12 -40 23 -43 23 -3 0 -23 11 -44 24 -42 27 -401 234 -526 304 -44 25 -88
52 -97 60 -25 21 -22 49 5 65 59 37 248 147 252 147 2 0 48 26 102 58 54 33
175 103 268 157 94 54 197 114 230 134 33 20 69 36 80 36 11 1 19 6 18 13 -2
7 0 11 5 10 4 -2 7 2 7 7 0 6 -3 9 -7 8 -5 -2 -7 3 -5 10 1 6 -3 11 -9 10 -6
-1 -11 4 -11 12 0 8 5 13 11 12 6 -1 10 4 9 11 -2 6 0 11 5 10 4 -2 7 2 7 7 0
6 -3 9 -7 8 -5 -2 -7 1 -5 6 1 5 -2 8 -8 8 -5 -1 -9 -6 -7 -10 1 -5 -2 -6 -8
-2 -8 5 -8 11 -1 19 6 7 7 16 3 20 -4 4 -8 12 -8 17 -1 5 -2 10 -4 12 -7 9 -7
36 1 37 5 0 8 3 7 8 -2 4 -6 6 -9 5 -8 -3 -5 39 4 55 12 18 14 15 13 -18z m1
-385 c0 -8 -4 -12 -9 -9 -5 3 -6 10 -3 15 9 13 12 11 12 -6z m2243 -41 c56
-28 158 -140 196 -216 33 -65 63 -174 59 -214 -10 -107 -58 -164 -138 -164
-31 0 -35 -4 -62 -60 -19 -41 -34 -60 -47 -60 -10 0 -17 3 -17 8 1 4 0 9 -1
12 -1 3 -3 12 -5 20 -16 84 -44 151 -80 195 -121 150 -167 319 -116 431 33 72
121 92 211 48z m-2243 -79 c0 -8 -4 -12 -9 -9 -5 3 -6 10 -3 15 9 13 12 11 12
-6z m-2111 -443 c-3 -5 1 -9 9 -9 8 0 12 4 9 9 -3 4 0 8 5 8 6 0 11 -5 11 -11
0 -5 5 -7 12 -3 7 5 8 3 2 -7 -15 -25 -12 -36 10 -35 11 1 26 4 31 7 13 8 71
-25 68 -39 -1 -6 5 -9 15 -7 9 1 25 -5 36 -14 10 -9 21 -16 25 -16 3 0 5 -3 4
-7 -2 -5 3 -7 10 -5 6 1 11 -5 9 -13 -3 -12 -1 -12 9 -3 9 9 16 10 26 2 7 -7
13 -8 13 -4 0 4 7 2 15 -5 8 -7 34 -23 58 -36 23 -12 41 -28 39 -34 -1 -6 1
-9 6 -6 5 3 25 -4 45 -14 36 -20 36 -20 72 1 19 12 42 19 50 15 8 -3 14 -1 12
5 -1 6 6 16 15 22 13 9 20 8 30 -2 7 -8 8 -11 2 -8 -6 3 -11 0 -11 -7 0 -7 6
-13 13 -13 7 0 11 4 8 8 -12 20 15 15 39 -7 15 -13 30 -25 34 -25 5 -1 7 -5 6
-9 -2 -5 6 -7 17 -5 11 2 27 -3 35 -11 8 -9 15 -12 15 -8 0 4 9 -1 20 -11 11
-10 17 -21 15 -25 -3 -5 3 -7 12 -5 10 1 25 -3 33 -11 8 -7 20 -12 25 -12 6 0
15 -9 21 -21 10 -19 13 -20 24 -6 17 20 69 45 75 36 2 -5 -7 -19 -20 -31 -14
-13 -25 -20 -25 -15 0 4 -9 0 -20 -10 -11 -10 -20 -14 -20 -10 0 4 -10 0 -22
-11 -23 -19 -23 -19 -7 1 11 14 14 26 9 40 -5 11 -9 16 -9 11 -1 -5 -9 -2 -19
7 -15 14 -19 15 -19 2 0 -8 4 -12 9 -9 4 3 8 1 8 -4 0 -5 -12 -15 -27 -23 -16
-8 -30 -17 -33 -21 -3 -3 -12 -8 -20 -10 -8 -2 -23 -11 -34 -20 -18 -16 -37
-23 -58 -19 -5 0 -7 -5 -5 -12 1 -7 -7 -12 -20 -11 -12 1 -21 -3 -20 -9 1 -5
-11 -17 -28 -27 -28 -15 -37 -34 -27 -53 2 -4 10 -3 18 4 8 6 14 8 14 4 0 -5
10 0 23 11 l22 19 -19 -23 c-11 -12 -22 -20 -24 -17 -3 3 -16 -5 -30 -17 -13
-13 -22 -18 -20 -11 2 6 -1 11 -7 11 -5 0 -9 -3 -8 -7 1 -4 -4 -8 -12 -8 -8 0
-13 4 -12 8 1 4 -2 7 -8 7 -5 0 -9 -4 -8 -9 2 -5 -1 -8 -6 -6 -5 1 -9 -2 -9
-8 0 -5 3 -9 7 -8 4 1 8 -4 8 -11 0 -7 -6 -13 -13 -13 -7 0 -12 4 -11 8 1 4
-2 6 -8 6 -5 -1 -9 -10 -9 -19 1 -9 -4 -16 -10 -15 -6 1 -10 -3 -9 -9 1 -6
-14 -10 -35 -9 -20 1 -36 6 -35 12 1 5 -4 10 -12 10 -8 0 -11 -5 -7 -11 4 -6
7 -14 8 -18 1 -5 2 -11 3 -14 0 -4 7 -1 15 5 11 9 16 9 22 0 4 -8 3 -9 -5 -5
-9 6 -11 -54 -11 -251 1 -467 1 -495 -10 -488 -6 4 -8 10 -5 15 3 5 1 11 -5
15 -6 4 -7 12 -3 18 11 17 11 30 1 44 -5 6 -5 14 2 18 5 3 10 31 10 61 0 44
-3 54 -17 54 -10 0 -73 32 -141 70 -67 39 -128 68 -134 64 -7 -4 -8 -3 -4 4 4
6 -6 18 -24 27 -16 8 -30 13 -30 10 0 -4 -7 1 -16 9 -8 9 -20 14 -25 10 -5 -3
-8 -2 -7 3 2 4 -1 9 -6 10 -5 1 -12 6 -15 11 -3 5 -28 22 -56 36 -27 15 -65
36 -82 46 -18 11 -33 17 -33 15 0 -3 -12 5 -26 18 -14 12 -31 22 -37 22 -6 0
-23 17 -37 38 -14 20 -38 44 -53 52 -24 12 -29 12 -44 -3 -9 -9 -19 -16 -22
-16 -12 3 -47 -15 -68 -35 -13 -12 -23 -19 -23 -16 0 3 -22 -6 -49 -22 -27
-15 -48 -30 -46 -33 2 -4 -1 -7 -8 -7 -15 0 -159 -82 -168 -95 -3 -6 -10 -10
-15 -10 -5 1 -33 -14 -62 -31 -29 -18 -70 -41 -90 -52 -21 -11 -55 -31 -77
-44 -22 -14 -58 -35 -80 -47 -161 -89 -299 -172 -303 -182 -2 -7 5 -15 15 -19
10 -3 34 -16 53 -28 19 -12 55 -33 80 -47 75 -42 313 -180 352 -205 21 -12 40
-23 43 -23 3 0 38 -20 78 -43 39 -24 126 -75 192 -112 66 -38 136 -78 155 -90
19 -12 55 -33 80 -47 45 -25 287 -165 345 -199 34 -20 161 -94 215 -124 19
-11 56 -32 82 -48 26 -15 54 -27 62 -27 15 0 56 22 291 160 50 29 163 95 252
146 88 51 203 118 253 149 51 30 95 55 97 55 3 0 53 29 112 64 58 34 237 139
396 231 326 189 350 204 338 215 -7 7 -201 120 -309 181 -18 9 -35 15 -38 12
-3 -4 -6 -2 -6 4 0 6 -15 18 -32 27 -18 9 -51 28 -73 41 -22 14 -74 44 -115
67 -41 23 -115 66 -163 95 -48 29 -90 53 -93 53 -2 0 -21 10 -42 23 -59 37
-68 38 -70 8 -3 -39 -10 -69 -28 -124 -12 -36 -13 -52 -5 -60 6 -6 11 -28 11
-49 0 -44 -32 -72 -74 -64 -16 3 -26 0 -26 -7 0 -19 -140 -150 -187 -176 -24
-12 -43 -19 -43 -15 0 5 -5 3 -12 -4 -13 -13 -114 -17 -121 -4 -3 4 20 7 51 7
54 1 86 12 171 60 29 16 111 96 111 108 0 5 6 15 14 23 10 9 12 26 9 53 -4 31
-1 43 17 61 14 14 29 20 42 17 11 -3 17 -3 14 0 -3 4 -2 11 4 17 5 7 12 27 15
46 3 19 10 39 15 45 10 12 11 185 2 200 -4 5 -7 12 -7 15 -5 39 -91 121 -118
112 -5 -1 -5 3 -1 10 5 7 9 57 10 111 3 140 14 134 14 -8 0 -65 3 -116 6 -112
10 10 93 -76 97 -100 2 -12 6 -26 10 -29 4 -4 7 -21 7 -38 0 -26 6 -35 38 -51
37 -20 236 -135 282 -164 14 -9 45 -26 70 -40 25 -13 89 -50 143 -82 54 -33
100 -59 102 -59 2 0 55 -30 117 -68 62 -37 130 -76 151 -87 21 -11 48 -30 59
-42 26 -27 17 -42 -51 -80 -25 -15 -93 -54 -151 -88 -58 -34 -170 -99 -250
-145 -80 -46 -170 -98 -200 -116 -188 -111 -502 -294 -504 -294 -2 0 -104 -59
-227 -131 -228 -134 -295 -173 -338 -195 -41 -22 -29 -28 -371 171 -236 137
-513 297 -560 323 -25 14 -61 35 -80 47 -19 12 -55 33 -80 47 -25 14 -106 60
-180 103 -240 139 -318 184 -417 241 -111 64 -136 84 -128 105 4 12 236 155
395 244 20 11 81 46 136 78 54 32 142 83 194 114 255 148 300 176 300 186 0 6
-7 18 -15 27 -8 9 -16 25 -18 36 -1 10 -5 24 -9 29 -7 13 -6 137 1 129 3 -3 7
-28 7 -55 2 -78 3 -81 17 -73 9 6 9 4 1 -7 -12 -16 7 -65 20 -51 4 4 6 0 4 -8
-1 -8 3 -14 10 -12 6 1 11 -1 10 -5 -2 -5 0 -8 3 -8 3 0 13 -8 23 -18 10 -9
22 -14 28 -11 6 4 8 2 4 -4 -3 -6 -1 -14 5 -18 9 -5 10 0 4 17 -11 33 -14 189
-3 195 4 3 8 15 8 27 1 12 11 47 24 77 23 51 25 77 7 65 -5 -2 -8 5 -7 18 1
14 -4 21 -13 19 -12 -3 -12 0 -1 12 14 18 21 21 17 7 -1 -5 3 -9 8 -9 6 0 9 4
8 9 -2 5 3 8 10 6 6 -1 11 4 9 11 -1 8 2 11 7 8 5 -3 15 2 22 11 10 12 10 14
2 9 -8 -4 -13 -1 -13 9 0 10 5 13 12 9 7 -5 8 -3 2 7 -10 16 -14 59 -5 56 3
-1 6 3 6 8 0 6 -3 9 -7 8 -5 -2 -7 0 -5 5 1 4 -2 7 -8 7 -5 0 -9 -3 -8 -6 1
-3 -4 -6 -12 -6 -8 0 -13 5 -12 11 1 6 -5 10 -13 8 -9 -2 -4 8 13 25 15 16 24
33 20 37 -5 4 -1 6 7 4 8 -2 14 3 12 10 -1 8 2 11 8 7 5 -3 10 1 10 9 0 9 -5
16 -12 16 -6 0 -9 3 -5 6 3 3 12 2 19 -2 20 -13 38 -13 35 -1 -1 7 4 11 11 10
6 -2 11 0 10 5 -2 4 0 7 3 7 4 0 15 7 25 16 11 9 27 15 37 14 11 -2 16 -1 13
2 -9 9 14 33 31 33 8 0 12 -4 9 -8z m80 -34 c3 -4 -1 -5 -10 -4 -8 1 -18 5
-22 8 -3 4 1 5 10 4 8 -1 18 -5 22 -8z m3846 -26 c5 -5 -3 -8 -19 -7 -15 1
-33 -2 -40 -7 -7 -5 -14 -5 -18 2 -5 8 -13 6 -25 -5 -17 -16 -18 -16 -16 1 2
10 11 21 22 24 24 9 84 4 96 -8z m-135 -16 c0 -8 -3 -14 -6 -13 -3 1 -7 -2 -7
-8 -1 -5 2 -9 7 -7 14 3 11 -4 -8 -19 -10 -8 -14 -9 -10 -2 4 6 3 14 -3 18 -5
3 -10 -2 -11 -12 0 -12 -2 -13 -6 -5 -3 7 5 24 18 38 27 28 26 28 26 10z m201
-19 c2 -9 -3 -14 -12 -13 -19 3 -29 12 -32 31 -3 20 40 3 44 -18z m18 -53 c-1
-12 -6 -28 -12 -35 -13 -17 -12 -59 1 -59 15 -1 75 -62 75 -76 0 -14 53 10
127 56 26 17 59 30 75 30 30 0 118 -39 118 -52 0 -4 4 -8 10 -8 5 0 56 -27
113 -60 58 -33 107 -60 110 -60 3 0 25 -13 49 -29 24 -15 62 -39 85 -52 22
-13 67 -40 100 -59 87 -51 103 -59 103 -52 0 4 4 2 8 -4 4 -6 53 -37 110 -70
57 -32 116 -67 132 -76 17 -10 30 -15 30 -12 0 2 10 -4 22 -16 12 -11 25 -20
29 -20 5 0 25 -11 45 -25 20 -14 40 -22 45 -19 5 3 9 1 9 -4 0 -5 15 -17 33
-26 17 -9 47 -26 65 -36 17 -11 32 -17 32 -14 0 2 10 -4 22 -16 12 -11 27 -20
34 -20 6 0 17 -7 24 -15 7 -8 16 -12 21 -9 5 3 9 1 9 -3 0 -5 29 -26 64 -46
34 -20 71 -46 81 -57 16 -18 16 -20 -6 -42 -13 -13 -102 -68 -197 -123 -95
-55 -180 -105 -190 -110 -9 -6 -39 -23 -67 -38 -27 -15 -63 -36 -80 -46 -16
-10 -95 -55 -175 -101 -80 -46 -147 -87 -150 -90 -3 -3 -21 -13 -40 -22 -19
-9 -52 -28 -73 -42 -21 -14 -40 -26 -42 -26 -4 0 -72 -39 -339 -194 -55 -32
-110 -60 -124 -62 -16 -3 -46 8 -91 34 -36 22 -88 52 -116 67 -27 16 -67 39
-87 52 -21 12 -40 23 -42 23 -3 0 -57 32 -121 70 -64 39 -118 70 -120 70 -3 0
-33 17 -67 38 -35 21 -90 54 -123 72 -33 18 -72 40 -87 49 -70 41 -357 207
-393 227 -214 121 -260 151 -263 175 -2 16 5 29 20 38 43 27 341 201 344 201
2 0 47 26 101 59 54 32 113 66 132 75 18 10 58 34 88 54 31 20 81 51 112 68
l56 31 2 67 c1 43 7 74 16 84 8 10 13 23 11 30 -1 7 0 8 3 2 3 -7 12 -5 24 6
21 19 15 41 -7 23 -12 -10 -13 -9 -8 5 3 9 10 16 16 16 5 0 7 4 3 9 -3 5 1 15
8 23 7 7 16 21 20 32 6 14 10 16 21 7 16 -14 29 -2 15 15 -6 7 -6 14 0 18 5 3
7 16 3 29 -5 20 -4 21 11 8 9 -7 17 -10 17 -6 0 4 6 2 13 -4 8 -6 17 -7 21 -3
4 4 6 0 4 -8 -1 -8 2 -14 8 -13 6 1 11 -4 11 -12 0 -8 -5 -13 -11 -12 -6 1
-11 -7 -10 -19 1 -16 -4 -21 -20 -20 -18 1 -21 -4 -20 -40 0 -35 -3 -41 -20
-40 -12 1 -20 -5 -19 -11 2 -7 -1 -12 -6 -10 -5 1 -9 -2 -9 -8 0 -5 3 -9 7 -8
4 1 8 -4 8 -12 0 -8 -4 -13 -8 -12 -4 1 -6 -2 -6 -8 1 -5 7 -9 12 -7 6 2 -2
-9 -18 -25 -15 -16 -24 -33 -20 -37 5 -4 3 -6 -3 -4 -7 1 -12 -1 -12 -7 0 -5
3 -9 7 -8 4 1 8 -4 8 -12 0 -8 -4 -13 -8 -12 -4 1 -7 -2 -7 -8 0 -5 4 -9 9 -7
5 1 8 -4 7 -10 -2 -7 3 -12 10 -10 6 1 11 -4 10 -10 -2 -7 4 -11 12 -10 8 2
12 0 8 -4 -4 -4 -2 -14 5 -23 11 -14 10 -14 -5 -2 -16 12 -22 9 -19 -12 0 -4
-3 -6 -8 -5 -5 2 -9 -1 -9 -7 0 -5 3 -9 7 -8 4 1 8 -4 8 -12 0 -8 -4 -13 -8
-12 -4 1 -7 -2 -7 -8 0 -5 4 -9 9 -7 5 1 8 -4 7 -10 -2 -7 3 -12 10 -10 6 1
11 -4 10 -10 -2 -7 3 -12 10 -10 6 1 11 -1 10 -5 -2 -5 2 -8 7 -8 6 0 9 3 8 6
-1 3 4 6 12 6 8 0 13 -5 12 -11 -1 -6 4 -10 11 -8 6 1 11 -4 10 -10 -2 -7 3
-12 10 -10 6 1 11 -4 10 -10 -2 -7 2 -12 8 -11 6 1 11 -4 11 -11 0 -7 -6 -13
-13 -13 -7 0 -12 5 -11 11 1 6 -4 10 -11 8 -6 -1 -11 1 -10 5 2 5 -1 8 -7 8
-5 0 -9 -3 -8 -6 1 -3 -4 -6 -12 -6 -8 0 -13 5 -12 11 1 6 -4 10 -11 8 -6 -1
-11 4 -10 10 2 7 -3 12 -10 10 -6 -1 -11 4 -10 10 2 7 -3 12 -10 10 -6 -1 -11
1 -10 5 2 5 -1 8 -7 8 -5 0 -9 -3 -8 -6 1 -3 -4 -6 -12 -6 -8 0 -13 5 -12 11
1 5 -3 10 -10 11 -14 0 -28 13 -28 26 0 5 -4 8 -10 7 -5 -2 -9 -7 -7 -13 2 -5
-5 -2 -16 8 -10 9 -21 15 -24 12 -3 -3 -11 2 -19 12 -12 15 -12 16 1 8 13 -8
13 -6 1 8 -13 17 -36 14 -25 -4 3 -5 0 -8 -6 -7 -24 6 -17 -31 11 -58 16 -15
29 -25 29 -21 0 4 21 -8 48 -26 26 -19 55 -33 64 -31 10 1 16 -3 15 -9 -1 -7
3 -11 9 -10 6 1 22 -10 35 -24 l24 -26 -25 14 c-14 8 -33 20 -42 28 -10 8 -18
11 -18 6 0 -4 -7 -1 -16 6 -17 14 -48 33 -74 45 -55 27 -89 56 -92 79 l-3 26
-21 -20 c-12 -11 -24 -18 -27 -15 -2 2 -10 -2 -17 -11 -7 -8 -18 -15 -25 -15
-6 0 -30 -13 -51 -28 -21 -16 -43 -30 -49 -31 -22 -6 -85 -45 -85 -53 0 -5 -4
-7 -8 -4 -5 3 -24 -5 -43 -17 -19 -13 -112 -67 -206 -121 -95 -54 -170 -102
-167 -107 3 -5 26 -21 52 -35 85 -48 176 -101 262 -152 47 -27 110 -64 140
-81 84 -48 193 -111 210 -121 17 -11 244 -141 310 -178 25 -13 50 -28 55 -32
6 -4 30 -19 55 -32 25 -14 117 -66 205 -117 88 -50 170 -94 183 -98 15 -3 36
3 62 21 22 14 42 26 45 26 2 0 34 18 70 40 36 22 67 40 69 40 2 0 56 32 120
70 65 39 119 70 120 70 2 0 104 59 227 131 123 73 238 139 254 149 17 9 102
59 190 110 88 51 180 104 205 118 67 37 120 72 120 77 0 2 -35 24 -77 47 -43
24 -85 48 -95 53 -33 20 -144 83 -193 110 -27 15 -57 33 -65 41 -8 7 -17 12
-20 12 -4 -1 -50 24 -105 59 -11 7 -38 22 -60 33 -59 31 -81 44 -99 59 -9 7
-16 11 -16 7 0 -3 -22 10 -50 29 -27 19 -52 35 -54 35 -3 0 -44 22 -91 49 -47
27 -85 47 -85 44 0 -2 -7 3 -16 11 -8 9 -21 13 -27 9 -7 -3 -9 -3 -5 2 7 7
-10 21 -52 42 -8 4 -46 26 -85 49 -38 23 -77 44 -85 46 -8 2 -23 11 -34 21
-11 9 -23 17 -27 17 -5 0 -28 13 -51 29 -61 41 -91 47 -139 26 -21 -10 -39
-22 -39 -27 0 -5 -4 -7 -9 -4 -5 3 -14 -1 -21 -9 -7 -8 -19 -15 -27 -15 -8 0
-11 -5 -7 -12 4 -7 3 -8 -4 -4 -6 4 -19 -2 -29 -13 -19 -23 -33 -19 -33 10 0
36 -33 82 -68 93 -17 6 -22 14 -20 37 1 17 8 35 15 41 7 6 10 15 6 22 -12 19
-11 33 1 33 7 0 12 -10 12 -23z m-245 -18 c5 3 7 9 5 13 -3 4 1 8 8 8 7 0 13
-6 13 -13 0 -7 -5 -12 -11 -11 -6 1 -10 -3 -9 -9 1 -6 -4 -11 -11 -11 -6 0
-12 12 -13 26 0 15 1 18 4 8 2 -9 9 -15 14 -11z m-4111 1 c0 -2 -10 -12 -22
-23 l-23 -19 19 23 c18 21 26 27 26 19z m4377 -189 c13 -12 23 -32 23 -45 0
-26 20 -32 21 -5 0 14 2 13 9 -4 4 -11 22 -27 39 -34 17 -7 31 -16 31 -21 0
-5 7 -9 16 -9 23 0 64 -50 64 -78 0 -13 4 -21 9 -18 5 3 14 -1 21 -9 17 -20
33 -19 54 4 20 22 98 46 121 37 8 -3 17 -4 19 -3 2 1 12 -5 22 -15 11 -9 55
-35 99 -57 44 -23 94 -50 110 -59 32 -19 49 -22 61 -9 13 13 41 7 70 -15 16
-13 29 -21 29 -19 0 2 10 1 23 -3 22 -7 26 -18 23 -66 -1 -15 7 -34 18 -45 12
-10 21 -24 21 -32 0 -9 5 -11 13 -7 9 6 9 4 -1 -8 -8 -10 -9 -19 -3 -22 9 -6
6 -50 -4 -67 -3 -4 2 -12 10 -19 8 -7 15 -9 15 -5 0 5 9 0 20 -10 11 -10 20
-15 20 -12 0 4 16 -4 35 -18 20 -13 41 -26 48 -28 8 -3 4 -13 -12 -31 -14 -14
-27 -24 -30 -21 -2 3 -17 -7 -33 -22 -15 -15 -28 -23 -28 -18 0 4 -9 0 -20
-10 -11 -10 -20 -14 -20 -10 0 5 -13 -4 -30 -20 -16 -16 -30 -25 -30 -20 0 4
-9 0 -20 -10 -11 -10 -20 -15 -20 -12 0 4 -11 -3 -24 -14 -13 -12 -26 -19 -29
-18 -3 2 -14 -5 -26 -15 -12 -11 -21 -15 -21 -11 0 5 -13 -3 -28 -18 -20 -19
-29 -23 -29 -13 0 8 5 12 10 9 6 -3 7 -1 3 6 -6 9 -11 9 -22 0 -7 -6 -12 -15
-9 -18 2 -4 -2 -8 -10 -8 -10 0 -12 4 -5 12 14 17 0 27 -17 13 -11 -9 -13 -8
-11 3 2 8 -3 13 -9 12 -7 -2 -12 3 -10 10 1 6 -4 11 -10 10 -7 -2 -12 0 -10 5
1 4 -2 7 -8 7 -5 0 -9 -3 -8 -6 1 -3 -4 -6 -12 -6 -8 0 -13 5 -12 11 1 6 -7
11 -19 10 -16 -1 -21 4 -20 20 1 13 -4 20 -13 18 -12 -3 -12 0 -1 12 15 19 21
20 17 4 -1 -7 4 -12 10 -11 7 2 12 -3 10 -10 -1 -6 4 -11 10 -10 7 2 12 0 12
-5 -4 -21 3 -23 21 -7 11 10 17 22 14 27 -3 4 -2 7 3 6 4 -2 8 2 8 7 0 6 -3 9
-6 8 -3 -1 -6 4 -6 12 0 8 5 13 11 12 6 -1 10 3 9 9 -1 6 4 11 12 11 8 0 13
-3 12 -6 -1 -3 2 -6 8 -6 5 0 9 3 8 6 -1 3 4 6 12 6 8 0 13 -3 12 -6 -1 -3 3
-6 8 -6 6 0 9 3 8 7 -2 5 3 7 10 5 6 -1 11 4 10 10 -2 7 3 12 10 10 6 -1 11 3
10 9 -1 6 4 11 12 11 8 0 13 -5 12 -11 -1 -6 4 -10 10 -9 7 2 12 0 10 -5 -1
-4 2 -7 8 -7 5 0 9 3 8 7 -2 5 3 7 10 5 6 -1 11 5 9 13 -2 8 0 12 4 7 4 -4 16
1 26 10 15 14 19 14 16 3 -2 -8 3 -14 9 -13 7 2 12 0 10 -5 -1 -4 3 -7 8 -7 5
0 9 3 8 7 -2 5 0 7 5 5 4 -1 7 3 7 8 0 5 -3 9 -6 8 -3 -1 -6 4 -6 12 0 8 3 13
6 12 3 -1 6 3 6 8 0 6 -4 9 -8 7 -5 -1 -6 2 -2 8 9 15 -7 12 -29 -5 -57 -43
-110 12 -84 87 12 33 62 78 87 78 31 0 53 -34 49 -79 -2 -22 1 -40 6 -41 5 0
10 29 10 65 0 53 -4 69 -22 88 -15 16 -22 36 -22 64 0 37 -2 40 -27 38 -16 -1
-27 -7 -25 -14 1 -7 -2 -10 -6 -7 -5 3 -17 -3 -27 -14 -14 -15 -21 -17 -32 -9
-12 11 -18 5 -13 -16 1 -5 -2 -7 -6 -2 -4 4 -20 -4 -34 -18 -19 -18 -27 -21
-27 -11 0 8 4 14 8 13 4 -1 7 3 7 8 0 6 -3 9 -7 8 -4 -1 -8 4 -8 12 0 8 4 13
8 12 4 -1 7 3 7 8 0 6 -3 9 -7 8 -4 -1 -8 4 -8 12 0 8 5 13 11 12 6 -1 10 4 8
11 -1 6 1 11 5 10 17 -6 14 18 -3 27 -11 6 -35 19 -54 30 -19 10 -38 19 -42
20 -4 0 -13 6 -20 13 -6 6 -15 12 -19 12 -4 0 -35 16 -70 35 -74 42 -120 47
-152 17 -13 -12 -27 -19 -30 -15 -4 3 -7 1 -7 -6 0 -7 -7 -19 -15 -27 -14 -14
-19 -11 -16 9 1 5 -3 6 -8 3 -5 -3 -14 0 -20 8 -7 9 -24 12 -46 9 -25 -3 -37
0 -41 11 -8 20 -34 9 -34 -16 0 -10 4 -17 9 -13 5 3 16 -1 24 -9 8 -8 19 -12
23 -8 5 4 -2 -5 -15 -20 -29 -34 -75 -38 -91 -9 -26 49 2 130 53 155 18 8 25
16 17 16 -49 1 -99 -83 -100 -166 0 -28 -6 -59 -15 -70 -8 -10 -15 -15 -15
-10 0 6 -13 -3 -30 -19 -16 -16 -30 -25 -30 -20 0 4 -9 0 -20 -10 -11 -10 -20
-15 -20 -10 0 4 -6 2 -14 -4 -10 -8 -16 -9 -21 -1 -3 6 -10 8 -15 5 -4 -3 -7
3 -6 12 3 20 49 47 81 48 11 1 19 7 17 14 -1 7 2 10 8 6 6 -3 8 -10 6 -14 -3
-4 1 -8 8 -8 11 0 12 4 3 20 -9 15 -9 21 1 24 22 8 13 21 -23 34 -19 7 -35 17
-35 21 0 4 -11 8 -24 8 -97 0 -101 168 -5 254 47 43 90 48 126 14z m-3019 -70
c10 -14 1 -52 -16 -62 -5 -3 -15 1 -22 9 -10 12 -10 21 -2 40 13 28 24 31 40
13z m-138 -22 c0 -2 -8 -10 -17 -17 -16 -13 -17 -12 -4 4 13 16 21 21 21 13z
m-40 -20 c0 -2 -8 -10 -17 -17 -16 -13 -17 -12 -4 4 13 16 21 21 21 13z m-40
-20 c0 -2 -8 -10 -17 -17 -16 -13 -17 -12 -4 4 13 16 21 21 21 13z m-40 -29
c0 -8 -7 -14 -15 -14 -11 0 -12 4 -4 14 6 7 13 13 15 13 2 0 4 -6 4 -13z m180
-27 c3 -1 8 -2 13 -1 4 0 6 -2 6 -6 -3 -20 2 -25 14 -14 11 8 18 7 31 -7 13
-15 13 -19 2 -19 -8 0 -14 3 -13 6 1 3 -2 6 -8 6 -5 0 -8 -4 -7 -10 2 -5 0 -7
-4 -2 -4 4 -16 -1 -26 -10 -11 -10 -18 -12 -16 -6 2 6 -1 11 -7 11 -5 0 -8 -5
-7 -11 2 -7 0 -9 -4 -5 -4 4 -14 2 -22 -5 -8 -6 -25 -12 -36 -12 -12 -1 -20
-6 -18 -13 1 -7 -4 -11 -10 -9 -7 1 -12 -4 -10 -10 1 -7 -4 -12 -10 -10 -7 1
-12 -4 -10 -10 1 -7 -4 -12 -10 -10 -7 1 -12 -4 -10 -10 1 -7 -4 -12 -10 -10
-7 1 -12 -4 -10 -10 1 -7 -4 -12 -10 -10 -7 1 -12 -4 -11 -10 2 -7 -3 -12 -10
-10 -6 1 -11 -4 -10 -10 2 -7 -3 -12 -10 -10 -6 1 -11 -4 -10 -10 2 -7 -3 -12
-10 -10 -6 1 -11 -4 -10 -10 2 -7 0 -12 -5 -10 -4 1 -7 -2 -7 -8 0 -5 4 -9 10
-7 5 2 2 -5 -8 -16 -9 -10 -14 -22 -10 -26 5 -4 1 -6 -7 -4 -8 2 -14 -3 -13
-10 2 -6 0 -11 -5 -10 -4 2 -7 -1 -7 -7 0 -5 4 -9 10 -7 5 2 2 -5 -8 -16 -9
-10 -14 -22 -10 -26 5 -4 1 -6 -7 -4 -11 2 -15 -5 -14 -28 0 -18 -5 -31 -12
-31 -7 0 -12 3 -11 6 1 3 -2 6 -8 6 -5 0 -9 -3 -7 -8 1 -4 -2 -6 -7 -5 -5 2
-9 -1 -9 -7 0 -5 3 -9 7 -8 4 1 8 -4 8 -12 0 -8 -4 -13 -8 -12 -4 1 -7 -2 -7
-8 0 -5 3 -9 7 -8 4 1 8 -4 8 -12 0 -8 -4 -13 -8 -12 -4 1 -7 -2 -7 -8 0 -5 3
-9 7 -8 4 1 8 -4 8 -12 0 -8 -4 -13 -8 -12 -4 1 -7 -2 -7 -8 0 -5 3 -9 7 -8 4
1 8 -4 8 -12 0 -8 -4 -13 -8 -12 -4 1 -7 -2 -7 -8 0 -5 4 -9 9 -7 5 1 8 -4 7
-10 -2 -7 3 -12 10 -10 6 1 11 -4 10 -10 -2 -7 2 -12 8 -11 6 1 11 -4 11 -12
0 -8 -5 -13 -11 -12 -6 1 -10 -3 -9 -9 1 -6 -4 -11 -12 -11 -8 0 -13 5 -12 11
1 6 -4 10 -11 8 -6 -1 -11 4 -10 10 2 7 -3 12 -10 10 -6 -1 -11 1 -11 5 1 5 0
11 -1 16 -1 4 -4 12 -5 17 -1 6 -4 12 -5 15 -1 3 -3 35 -4 73 -1 37 -5 72 -9
79 -4 6 -3 14 2 17 5 3 7 19 6 35 -1 17 1 29 5 28 5 -1 7 3 6 8 0 6 -5 9 -11
7 -5 -2 -2 5 8 16 9 10 14 22 10 26 -5 4 -1 6 7 4 9 -2 14 5 15 18 0 11 6 28
12 36 7 8 9 18 5 22 -4 4 0 6 8 4 8 -2 14 3 13 9 -2 7 1 12 6 10 5 -1 9 3 9 8
0 6 -5 9 -11 7 -6 -2 -5 4 3 12 14 18 21 21 17 7 -1 -5 3 -9 8 -9 6 0 9 4 8 9
-2 5 1 8 6 6 5 -1 8 3 8 8 -1 6 -6 9 -12 7 -5 -2 -2 5 8 16 9 10 14 22 10 26
-5 4 -1 6 7 4 8 -1 14 2 13 8 -1 6 4 11 12 11 8 0 13 -3 12 -6 -1 -3 3 -6 8
-6 6 0 9 3 8 7 -2 5 0 7 5 5 4 -1 7 3 7 8 0 6 -3 9 -6 8 -3 -1 -6 4 -6 12 0 8
5 13 11 12 6 -1 10 5 8 13 -2 8 0 12 4 7 4 -4 18 3 32 15 13 13 33 23 45 23
12 1 21 6 20 11 -1 6 4 11 12 11 8 0 13 -3 12 -6 -1 -3 3 -7 8 -8 6 -2 11 2
11 7 1 6 2 11 3 13 1 4 73 1 81 -3z m3335 -91 c-3 -4 -12 -6 -20 -2 -8 3 -15
0 -15 -6 0 -6 4 -11 10 -11 13 0 8 -34 -8 -52 -6 -8 -8 -19 -4 -23 4 -5 1 -5
-5 -1 -8 4 -13 1 -13 -9 0 -10 5 -13 13 -9 8 6 8 3 -2 -9 -15 -19 -60 -19 -57
0 2 15 36 53 45 50 3 -1 6 3 6 8 0 6 -3 9 -6 8 -13 -4 -2 49 14 68 15 16 21
18 32 9 8 -7 12 -16 10 -21z m-3753 -134 c-13 -28 -29 -29 -46 -2 -8 12 -5 21
9 37 17 18 20 19 34 6 12 -13 12 -20 3 -41z m524 3 c17 -12 31 -27 32 -35 4
-32 2 -120 -2 -138 -2 -11 -5 -22 -5 -25 -1 -3 -5 -11 -10 -19 -16 -25 -77 22
-85 64 -6 32 -10 35 -40 35 -78 0 -142 -158 -71 -176 13 -3 32 -1 41 4 14 8
28 5 56 -11 21 -12 38 -25 38 -29 0 -12 -99 -93 -122 -100 -13 -3 -40 -6 -60
-7 -76 -2 -112 100 -77 220 26 89 111 195 186 231 43 20 73 17 119 -14z m3110
-14 c-1 -7 -10 -22 -20 -33 -14 -15 -21 -17 -30 -8 -23 21 -15 38 16 33 16 -2
26 0 22 5 -3 5 -10 6 -16 3 -6 -4 -8 -3 -5 3 9 14 35 12 33 -3z m-158 -14 c-2
-5 2 -9 7 -7 6 1 9 5 8 8 -1 3 4 6 11 6 7 0 13 -6 13 -13 0 -7 -3 -12 -6 -11
-3 1 -7 -2 -7 -8 -1 -5 2 -9 7 -7 5 1 8 -1 7 -5 -2 -5 2 -9 7 -9 6 -1 9 1 8 5
-1 4 4 8 11 8 7 0 13 -6 13 -13 0 -7 -3 -12 -6 -11 -3 1 -6 -2 -6 -8 0 -5 3
-9 8 -7 4 1 6 -1 5 -5 -2 -5 2 -9 7 -9 6 -1 9 2 8 7 -2 5 3 8 10 7 6 -2 11 2
10 8 -1 6 4 11 12 11 8 0 13 -4 12 -8 -1 -4 3 -7 8 -7 6 0 9 5 7 12 -2 6 0 8
4 3 4 -4 18 3 31 15 31 29 50 31 49 4 -1 -14 4 -20 14 -18 8 2 12 0 7 -4 -9
-10 43 -65 55 -58 5 3 8 2 7 -3 -3 -19 2 -25 14 -14 11 8 18 6 32 -9 10 -11
22 -17 27 -14 4 3 7 0 6 -8 -2 -7 3 -12 10 -10 6 1 11 -4 10 -10 -2 -7 3 -12
10 -10 6 1 11 -2 10 -7 -2 -5 2 -9 7 -9 6 0 9 3 8 7 -1 4 4 8 12 8 8 0 13 -5
12 -11 -1 -5 3 -10 10 -11 15 0 28 -13 28 -28 1 -7 6 -11 13 -9 7 1 11 -4 10
-10 -2 -7 2 -12 8 -11 6 1 11 -4 11 -12 0 -8 -3 -13 -6 -12 -3 1 -6 -2 -6 -8
0 -5 3 -9 6 -8 3 1 6 -4 6 -11 0 -7 -6 -13 -13 -13 -7 0 -12 5 -11 11 1 6 -4
10 -11 8 -6 -1 -11 4 -10 10 2 7 -3 12 -10 10 -6 -1 -11 4 -10 10 2 7 -3 12
-10 10 -6 -1 -11 4 -10 10 2 7 -3 12 -10 10 -6 -1 -11 2 -10 7 2 5 -1 9 -7 9
-5 0 -9 -3 -8 -7 1 -4 -4 -8 -12 -8 -8 0 -13 5 -12 11 1 6 -4 10 -11 8 -6 -1
-11 4 -10 10 2 7 -3 12 -10 10 -6 -1 -11 1 -10 5 2 5 -1 9 -7 10 -5 0 -9 -4
-7 -10 2 -6 -5 -4 -16 6 -10 9 -22 14 -26 10 -4 -5 -6 -1 -4 7 2 8 -3 14 -9
13 -7 -2 -12 0 -10 5 1 4 -2 7 -8 7 -5 0 -9 -3 -8 -6 1 -3 -4 -6 -11 -6 -7 0
-13 6 -13 13 0 7 3 12 6 11 3 -1 6 3 6 8 0 5 -3 9 -7 8 -5 -2 -7 0 -5 5 1 4
-2 7 -8 7 -5 0 -9 -3 -8 -6 1 -3 -4 -6 -11 -6 -7 0 -13 6 -13 13 0 7 3 12 6
11 3 -1 6 3 6 8 0 6 -3 9 -7 8 -5 -2 -7 0 -5 5 1 4 -2 7 -8 7 -5 0 -9 -3 -7
-7 1 -5 -4 -7 -10 -5 -7 1 -12 -4 -10 -10 1 -7 -1 -12 -5 -10 -5 1 -8 -2 -8
-8 0 -5 3 -9 6 -8 3 1 6 -4 6 -12 0 -8 -3 -13 -6 -12 -3 1 -6 -2 -6 -8 0 -5 3
-9 8 -8 4 2 6 -3 5 -10 -2 -6 4 -11 12 -9 11 3 10 -2 -4 -17 -11 -12 -16 -22
-13 -22 4 -1 11 -2 16 -3 5 0 13 -4 17 -8 4 -4 13 -3 21 4 11 9 13 8 11 -3 -2
-8 3 -13 9 -12 7 2 12 -3 10 -10 -1 -6 3 -11 9 -10 6 1 11 -4 11 -11 0 -7 -6
-13 -13 -13 -7 0 -12 5 -11 11 1 6 -4 10 -10 9 -7 -2 -12 3 -10 9 1 8 -10 13
-30 12 -18 0 -31 4 -30 10 1 6 -4 10 -10 9 -7 -2 -12 3 -10 10 1 6 -4 11 -10
10 -7 -2 -12 3 -10 10 1 6 -4 11 -10 10 -7 -2 -12 0 -10 5 1 4 -2 7 -8 7 -5 0
-9 -3 -8 -6 1 -3 -4 -6 -12 -6 -8 0 -13 5 -12 11 1 6 -3 10 -9 9 -6 -1 -11 4
-11 11 0 7 6 13 13 13 7 0 12 -3 11 -6 -1 -3 3 -6 8 -6 6 0 9 3 8 8 -2 4 0 6
5 5 4 -2 7 2 7 7 0 6 -3 9 -7 7 -5 -1 -7 1 -5 5 1 5 -2 8 -8 8 -5 0 -9 -3 -8
-6 1 -3 -4 -6 -11 -6 -7 0 -13 6 -13 13 0 7 4 12 8 11 4 -1 7 3 7 8 0 6 -4 9
-9 8 -5 -2 -8 0 -6 5 1 4 -2 7 -8 7 -5 0 -9 -3 -7 -7 1 -5 -1 -7 -5 -5 -5 1
-8 -2 -8 -8 0 -5 3 -9 6 -8 3 1 6 -4 6 -11 0 -7 -6 -13 -13 -13 -7 0 -12 4
-11 8 1 4 -2 6 -8 6 -5 -1 -9 -5 -8 -8 1 -3 -4 -6 -12 -6 -8 0 -13 5 -12 11 1
6 -4 10 -10 9 -7 -2 -12 3 -10 10 1 6 -4 11 -10 10 -7 -2 -12 3 -10 10 1 6 -4
11 -10 10 -7 -2 -12 3 -10 10 1 6 -3 11 -9 10 -6 -1 -11 4 -11 11 0 7 6 13 13
13 7 0 12 -4 11 -8 -1 -4 3 -7 8 -7 6 0 9 4 8 9 -2 5 3 8 10 7 6 -2 11 3 9 10
-1 8 2 11 7 8 5 -3 14 1 21 9 14 17 21 19 18 5z m640 0 c-2 -5 2 -9 7 -7 6 1
9 5 8 8 -1 3 4 6 10 6 8 0 13 -14 13 -32 0 -18 -5 -32 -13 -32 -6 0 -11 4 -10
8 1 4 -2 6 -8 6 -5 -1 -9 -5 -8 -8 1 -3 -4 -6 -12 -6 -8 0 -13 5 -12 11 1 6
-3 10 -10 9 -6 -1 -16 4 -23 12 -10 12 -8 13 8 10 12 -2 26 3 33 11 13 16 20
18 17 4z m-4854 -90 c-3 -3 -11 -5 -17 -5 -7 -1 -11 -6 -9 -13 1 -7 -4 -11
-10 -9 -7 1 -12 -3 -11 -10 2 -6 -13 -26 -32 -44 -32 -31 -33 -34 -18 -51 8
-10 20 -15 25 -12 4 3 7 0 6 -8 -2 -7 3 -12 10 -10 6 1 11 -2 10 -7 -2 -5 2
-8 7 -7 6 0 9 5 7 11 -2 5 5 2 16 -8 10 -9 22 -14 26 -10 4 5 6 1 4 -7 -1 -8
2 -14 9 -15 14 0 28 -13 28 -26 0 -5 5 -8 10 -6 6 1 9 6 7 12 -2 5 5 2 16 -8
10 -9 22 -14 26 -10 4 5 6 1 4 -7 -1 -8 3 -14 9 -13 7 2 12 -3 10 -10 -1 -6 4
-11 10 -10 7 2 12 0 10 -5 -1 -4 3 -8 8 -9 6 0 9 4 7 10 -2 6 5 4 16 -6 10 -9
22 -14 26 -10 4 5 6 1 4 -7 -2 -8 3 -14 10 -12 6 1 11 -4 10 -10 -2 -7 3 -12
10 -10 6 1 11 -4 10 -10 -2 -7 3 -12 10 -10 6 1 11 -4 10 -10 -2 -7 2 -12 8
-11 6 1 11 -4 11 -11 0 -7 -6 -13 -13 -13 -7 0 -12 5 -11 11 1 6 -4 10 -11 8
-6 -1 -11 4 -10 10 2 7 -3 12 -10 10 -6 -1 -11 1 -10 5 2 5 -1 8 -7 8 -5 0 -9
-3 -8 -6 1 -3 -4 -6 -11 -6 -7 0 -13 6 -13 13 0 7 3 12 6 11 3 -1 7 3 8 8 0 6
-3 9 -8 8 -5 -2 -8 1 -6 6 1 5 -2 9 -8 9 -5 0 -9 -3 -8 -7 1 -4 -4 -8 -12 -8
-8 0 -13 5 -12 11 1 6 -4 10 -10 9 -7 -2 -12 3 -10 10 1 6 -4 11 -10 10 -7 -2
-12 0 -10 5 1 4 -2 7 -8 7 -5 0 -9 -3 -8 -6 1 -3 -4 -6 -12 -6 -8 0 -13 5 -12
11 1 6 -4 10 -10 9 -7 -2 -12 3 -10 10 1 6 -4 11 -10 10 -7 -2 -12 0 -10 5 1
4 -2 7 -8 7 -5 0 -9 -3 -8 -6 1 -3 -4 -6 -11 -6 -7 0 -13 6 -13 13 0 7 3 12 6
11 3 -1 6 3 6 8 0 6 -3 9 -7 8 -5 -2 -7 1 -5 6 1 5 -2 9 -8 9 -5 0 -9 -3 -8
-7 1 -4 -4 -8 -12 -8 -8 0 -13 4 -12 8 1 4 -2 6 -8 6 -5 -1 -9 -5 -8 -8 1 -3
-4 -6 -12 -6 -8 0 -13 5 -12 11 1 6 -4 10 -10 9 -7 -2 -12 3 -10 10 1 6 -4 11
-10 10 -7 -2 -12 3 -10 10 1 6 -4 11 -10 9 -7 -1 -12 1 -10 5 1 5 -2 8 -8 8
-5 0 -9 -3 -8 -6 1 -3 -4 -6 -12 -6 -8 0 -12 4 -10 8 3 3 -1 11 -8 17 -10 8
-13 1 -13 -36 0 -53 29 -90 54 -69 10 8 12 7 10 -3 -2 -7 7 -18 18 -25 12 -6
29 -17 38 -24 9 -7 16 -10 16 -6 0 5 9 0 20 -10 11 -10 20 -15 20 -11 0 4 12
-4 26 -18 15 -13 35 -23 45 -21 10 2 18 -1 16 -8 -1 -7 3 -11 8 -11 6 1 21 -9
35 -23 l25 -25 -35 21 c-19 12 -42 24 -50 28 -8 3 -33 18 -55 32 -22 14 -42
26 -45 26 -3 0 -25 14 -50 30 -25 16 -47 30 -50 30 -3 1 -17 7 -32 15 -28 13
-30 19 -30 65 0 48 2 55 27 71 19 13 28 14 39 5 11 -9 16 -9 22 0 4 7 3 9 -4
5 -6 -3 -13 -2 -16 3 -4 5 -2 12 3 15 5 4 12 2 16 -4 4 -6 10 -8 15 -5 5 3 11
1 15 -5 4 -6 11 -8 16 -4 5 3 6 10 3 16 -4 6 -3 8 3 5 5 -3 10 0 10 8 0 12 -3
12 -15 3 -17 -15 -42 -19 -42 -8 0 8 16 17 33 18 4 1 21 12 37 26 17 14 39 24
50 23 10 -1 17 -4 14 -7z m4030 -12 c-3 -4 1 -8 9 -8 8 0 20 -7 27 -15 7 -8
16 -13 20 -10 4 3 13 -2 20 -10 7 -8 17 -12 23 -8 6 3 7 1 3 -5 -4 -7 -1 -12
7 -12 8 0 20 -6 26 -14 7 -8 21 -13 31 -11 11 2 19 -1 17 -8 -1 -7 3 -11 9
-10 7 1 20 -7 29 -17 10 -11 24 -20 30 -20 7 0 18 -7 25 -15 7 -9 15 -13 17
-11 5 4 14 -2 46 -30 7 -6 20 -10 29 -8 10 1 16 -3 15 -9 -1 -7 8 -11 20 -11
12 1 21 -4 20 -10 -1 -6 3 -10 9 -9 7 1 20 -7 29 -17 10 -11 24 -20 30 -20 7
0 18 -7 25 -15 7 -9 15 -13 18 -10 3 3 14 -2 24 -12 10 -9 18 -13 18 -9 0 4 7
0 16 -8 8 -9 20 -14 25 -10 5 3 8 1 7 -4 -2 -6 0 -9 3 -8 4 0 16 -8 28 -18 12
-11 21 -15 21 -11 0 4 9 0 20 -10 10 -9 26 -15 35 -12 8 4 14 1 12 -5 -3 -15
82 -66 127 -75 10 -2 26 3 35 10 9 8 41 27 71 43 30 16 76 43 102 61 27 18 49
32 50 31 2 -1 22 11 45 25 24 15 45 27 47 27 3 0 20 10 38 23 32 21 41 48 25
73 -4 7 0 17 8 24 13 11 15 5 15 -44 0 -32 -4 -55 -9 -52 -5 3 -14 -1 -21 -9
-7 -8 -16 -15 -21 -15 -5 0 -28 -12 -52 -27 -23 -15 -46 -28 -52 -28 -5 -1 -9
-7 -7 -14 1 -7 -1 -10 -6 -7 -5 3 -24 -5 -43 -17 -19 -11 -38 -21 -44 -22 -5
0 -9 -7 -7 -14 1 -7 -2 -10 -7 -7 -5 3 -25 -5 -45 -19 -20 -13 -36 -22 -36
-18 0 3 -8 0 -17 -8 -48 -40 -67 -42 -121 -15 -28 14 -53 30 -57 36 -4 6 -10
8 -14 5 -5 -2 -16 4 -26 15 -10 11 -24 20 -30 20 -7 0 -18 7 -25 15 -7 8 -16
13 -20 10 -5 -3 -12 0 -15 5 -8 13 -56 34 -70 31 -5 -2 -7 1 -3 5 5 4 -2 13
-15 20 -26 15 -71 36 -75 34 -1 0 -12 9 -24 20 -12 11 -27 20 -33 20 -6 0 -17
6 -23 13 -7 6 -16 12 -20 12 -4 1 -25 12 -47 26 -22 14 -47 29 -55 33 -31 15
-61 33 -81 52 -12 10 -24 18 -28 18 -12 -3 -36 9 -59 29 -12 12 -29 22 -38 23
-18 3 -84 46 -84 55 0 3 7 6 15 6 8 0 12 -4 9 -9z m-3214 -133 c0 -2 -6 -8
-13 -14 -10 -8 -14 -7 -14 2 0 8 6 14 14 14 7 0 13 -1 13 -2z m3757 -89 c-1
-6 4 -10 11 -8 6 1 11 -4 10 -10 -2 -7 2 -12 8 -11 6 1 11 -4 11 -11 0 -7 -6
-13 -13 -13 -7 0 -12 5 -11 11 1 6 -4 10 -10 9 -7 -2 -12 3 -10 10 1 6 -3 11
-9 10 -6 -1 -11 4 -11 11 0 7 6 13 13 13 7 0 12 -5 11 -11z m240 -1 c0 -6 -6
-12 -12 -12 -6 0 -12 6 -12 12 0 6 6 12 12 12 6 0 12 -6 12 -12z m-280 -40 c0
-8 -4 -12 -9 -9 -5 3 -6 10 -3 15 9 13 12 11 12 -6z m-1637 -69 c0 -2 -8 -10
-17 -17 -16 -13 -17 -12 -4 4 13 16 21 21 21 13z m125 -26 c10 -11 20 -18 23
-16 2 3 15 0 29 -5 14 -5 42 -12 62 -15 20 -3 38 -10 39 -15 2 -5 10 -9 18 -9
23 0 47 -48 47 -95 0 -44 -28 -111 -78 -187 -14 -20 -21 -40 -16 -43 6 -3 4
-15 -3 -29 -6 -13 -10 -42 -8 -65 4 -35 10 -45 46 -69 22 -15 57 -36 76 -45
19 -10 49 -27 65 -37 17 -11 53 -32 80 -47 28 -15 57 -32 66 -38 9 -5 38 -22
65 -38 190 -108 244 -144 244 -165 0 -18 -51 -51 -298 -193 -51 -30 -105 -61
-120 -70 -15 -9 -92 -53 -172 -99 -80 -46 -165 -97 -189 -112 -25 -15 -58 -28
-73 -28 -24 0 -90 33 -213 107 -11 7 -26 15 -34 19 -7 4 -85 49 -173 100 -88
52 -161 94 -163 94 -7 0 -242 140 -263 157 -15 12 -21 24 -17 35 4 9 55 45
113 79 59 35 162 96 230 136 68 40 125 73 127 73 7 0 161 93 177 107 19 17 18
35 -5 61 -19 21 -17 60 3 105 13 26 25 31 62 28 17 -2 31 14 35 39 1 8 7 16
12 18 6 2 11 9 11 16 0 21 22 37 35 26 9 -7 16 -6 24 4 8 10 9 16 1 21 -6 4
-9 3 -8 -2 2 -4 -1 -8 -7 -8 -5 0 -9 3 -7 8 4 13 -25 7 -37 -7 -7 -8 -21 -13
-32 -11 -10 2 -19 -1 -19 -7 0 -5 -7 -7 -15 -4 -11 4 -19 -3 -25 -19 -5 -14
-15 -25 -22 -25 -19 -1 -58 -36 -58 -53 0 -8 -12 -26 -27 -41 -15 -15 -29 -40
-30 -54 -2 -15 -6 -34 -10 -42 -11 -26 -12 -40 -3 -45 10 -6 1 -41 -14 -54 -7
-6 -29 -8 -49 -4 -37 6 -37 6 -37 53 l0 48 38 -4 c47 -6 59 2 65 48 4 34 2 39
-28 57 -25 15 -36 16 -45 8 -9 -9 -11 -9 -7 -1 4 7 -2 14 -13 17 -16 4 -20 0
-21 -21 -2 -26 -2 -26 -6 2 -3 16 -15 38 -28 47 -33 26 -31 94 3 131 24 26 44
29 79 9 13 -7 23 -5 35 6 11 10 18 12 18 5 0 -7 -3 -12 -7 -12 -5 0 -22 -13
-39 -28 -26 -23 -31 -34 -30 -74 0 -26 3 -45 7 -42 4 2 6 13 4 24 -2 11 1 20
7 20 5 0 8 7 4 15 -3 10 5 20 25 31 41 21 87 3 101 -38 11 -32 20 -35 38 -13
7 8 19 15 26 15 8 0 15 7 15 15 3 30 4 34 17 47 9 8 12 9 10 1 -2 -6 2 -11 7
-11 6 0 9 4 8 9 -2 5 3 8 10 6 6 -1 11 4 9 11 -1 8 2 11 8 7 6 -3 8 -11 5 -16
-14 -22 38 -2 78 30 9 8 17 10 17 6 0 -4 9 0 21 11 11 10 19 14 17 9 -2 -6 2
-11 7 -11 6 -1 9 2 8 7 -2 5 0 8 5 7 4 -2 7 2 7 7 0 6 -4 9 -10 7 -5 -2 -2 5
8 16 9 10 14 22 10 26 -5 4 -3 6 2 4 6 -1 10 2 10 7 0 6 -4 9 -10 7 -5 -2 0 7
13 21 15 16 20 27 13 32 -13 7 -15 25 -3 25 5 0 17 -9 27 -20z m-2687 -19 c-2
-18 4 -22 16 -12 10 8 16 9 21 1 3 -6 11 -8 16 -4 5 3 8 0 7 -8 -2 -7 3 -12
10 -10 6 1 11 -4 10 -10 -2 -7 3 -12 10 -10 6 1 11 -4 10 -10 -2 -8 9 -13 29
-12 18 0 31 -4 30 -10 -1 -6 4 -10 10 -9 7 2 12 0 10 -5 -1 -4 3 -7 8 -7 6 0
9 4 7 10 -2 5 5 2 14 -7 17 -17 19 -17 37 -1 10 10 17 13 15 8 -2 -6 2 -10 7
-10 6 0 9 3 8 6 -1 3 4 6 11 6 7 0 13 -6 13 -13 0 -7 -5 -12 -11 -11 -6 1 -10
-4 -9 -10 2 -7 -3 -12 -10 -10 -6 1 -10 -5 -9 -13 2 -8 0 -12 -4 -7 -4 4 -15
0 -24 -8 -14 -13 -17 -13 -17 -1 0 8 3 14 6 13 3 -1 6 3 6 8 0 6 -3 9 -7 8 -5
-2 -7 0 -5 5 1 4 -2 7 -8 7 -5 0 -9 -3 -8 -6 1 -3 -4 -6 -12 -6 -8 0 -13 3
-12 6 1 3 -2 6 -8 6 -5 0 -9 -3 -8 -6 1 -3 -4 -6 -12 -6 -8 0 -13 5 -12 11 1
6 -4 10 -10 8 -7 -1 -12 4 -10 10 1 7 -4 12 -10 10 -7 -1 -12 4 -10 10 1 8
-10 13 -30 12 -18 0 -31 4 -30 10 1 6 -4 10 -10 9 -7 -2 -12 3 -10 10 1 6 -4
11 -10 10 -7 -2 -12 3 -10 10 1 6 -3 11 -9 10 -6 -1 -11 4 -11 11 0 7 6 13 13
13 7 0 13 -3 12 -6z m2481 -4 c-2 -1 -15 -11 -29 -22 l-25 -20 19 23 c11 12
24 22 29 22 6 0 8 -1 6 -3z m-2649 -32 c0 4 8 1 18 -7 19 -17 53 -32 65 -30 4
1 6 -2 5 -7 -2 -5 0 -8 3 -7 4 0 16 -7 28 -18 11 -10 27 -16 36 -13 8 4 14 1
12 -6 -1 -7 4 -11 11 -10 6 2 12 -4 12 -14 0 -14 -2 -14 -20 2 -11 10 -20 14
-20 10 0 -4 -8 -2 -17 6 -10 8 -30 21 -45 29 -16 7 -28 17 -28 22 0 5 -4 7 -9
3 -5 -3 -12 -1 -16 5 -3 5 -21 17 -40 26 -19 9 -35 21 -35 27 0 5 9 2 20 -8
11 -10 20 -14 20 -10z m2581 -8 c-6 -8 -7 -18 -3 -23 4 -5 5 -8 3 -6 -3 1 -15
-7 -27 -19 -34 -32 -37 -7 -3 29 29 31 53 46 30 19z m-2011 -61 c-11 -31 -25
-33 -40 -6 -8 16 -6 24 11 41 19 19 23 20 30 6 5 -9 5 -26 -1 -41z m156 32 c4
-7 4 -10 -1 -6 -11 10 -55 -15 -88 -51 -16 -17 -35 -31 -43 -31 -9 0 -12 -5
-9 -10 4 -6 3 -10 -2 -9 -4 1 -19 -3 -33 -9 -25 -12 -34 -17 -106 -63 -41 -27
-73 -26 -89 3 -6 10 -5 11 6 1 19 -19 45 -16 87 11 20 12 42 24 47 25 6 1 20
12 33 23 12 12 22 17 22 12 0 -5 4 -4 8 2 4 6 22 19 40 28 17 9 32 23 32 30 0
8 17 23 38 34 45 25 49 25 58 10z m1759 -28 c-3 -5 -12 -10 -18 -10 -7 0 -6 4
3 10 19 12 23 12 15 0z m136 -7 c13 -16 12 -17 -3 -4 -10 7 -18 15 -18 17 0 8
8 3 21 -13z m-171 -12 c0 -5 -7 -12 -16 -15 -14 -5 -15 -4 -4 9 14 17 20 19
20 6z m3749 -31 c34 -18 64 -36 67 -41 3 -5 10 -7 15 -4 5 4 9 2 9 -2 0 -5 26
-22 58 -38 31 -16 59 -32 62 -35 3 -4 21 -15 40 -25 57 -29 100 -66 100 -86 0
-19 -29 -41 -143 -105 -34 -19 -75 -43 -92 -53 -16 -10 -57 -32 -90 -51 -33
-18 -64 -36 -69 -41 -25 -23 -74 -6 -210 73 -77 44 -162 93 -187 107 -72 41
-91 58 -87 77 3 17 92 79 153 107 43 20 169 98 176 109 3 5 10 10 15 11 5 1 8
6 6 10 -1 5 2 6 7 3 5 -3 24 0 42 8 41 17 52 15 128 -24z m-5937 -24 c5 3 7 0
6 -8 -2 -7 2 -12 7 -12 6 1 24 -12 40 -28 l30 -30 -30 18 c-16 10 -38 25 -49
33 -10 9 -20 15 -22 13 -6 -3 -44 22 -44 30 0 4 12 1 27 -7 15 -8 30 -12 35
-9z m2108 -20 c0 -2 -8 -10 -17 -17 -16 -13 -17 -12 -4 4 13 16 21 21 21 13z
m-57 -196 c3 -11 1 -18 -4 -14 -5 3 -9 12 -9 20 0 20 7 17 13 -6z m-4153 -39
c19 -10 51 -28 70 -40 19 -11 44 -25 55 -31 11 -5 43 -23 70 -39 28 -17 75
-44 105 -61 30 -16 84 -48 120 -69 36 -22 83 -49 105 -61 61 -33 86 -60 75
-79 -5 -10 -93 -66 -197 -125 -103 -60 -200 -117 -215 -127 -15 -11 -29 -19
-32 -19 -3 0 -42 -22 -88 -50 -51 -31 -95 -50 -113 -50 -18 0 -62 18 -105 43
-41 24 -167 96 -280 161 -113 66 -218 127 -235 136 -35 20 -43 50 -18 72 10 8
122 75 248 148 127 73 259 150 295 171 74 44 91 47 140 20z m7335 -33 c24 -19
87 -58 93 -58 4 0 23 -13 41 -28 50 -42 37 -64 -71 -120 -16 -8 -28 -18 -28
-23 0 -5 -3 -8 -7 -7 -5 0 -24 -6 -44 -15 -46 -20 -59 -18 -139 28 -121 68
-125 71 -128 96 -3 25 -8 22 148 113 45 26 111 33 135 14z m-3700 -670 c-11
-6 -24 -16 -30 -20 -16 -15 -179 -108 -187 -108 -5 0 -8 6 -8 13 0 11 38 35
165 103 44 24 99 34 60 12z m435 -58 c0 -9 -73 -54 -195 -121 -33 -18 -63 -37
-67 -43 -4 -6 -8 -7 -8 -2 0 5 -9 1 -20 -9 -11 -10 -20 -14 -20 -10 0 4 -8 1
-17 -7 -18 -15 -50 -29 -57 -25 -2 1 -13 -7 -25 -17 -12 -11 -21 -16 -21 -13
0 8 53 57 61 57 4 0 82 45 174 100 161 96 195 112 195 90z"/>
<path d="M2140 5718 c-19 -11 -156 -91 -305 -176 -148 -86 -304 -175 -345
-199 -128 -74 -115 -8 -112 -576 2 -270 5 -493 7 -495 2 -2 122 65 266 149
145 83 316 181 380 218 63 36 128 76 144 89 l29 23 -1 157 c-1 86 -1 309 -2
495 -1 262 -4 337 -13 337 -7 0 -29 -10 -48 -22z"/>
<path d="M5020 5610 c-36 -22 -130 -76 -193 -110 -38 -20 -82 -49 -98 -63
l-29 -25 0 -281 c0 -191 3 -281 11 -281 11 0 39 15 205 111 60 34 117 69 127
77 15 14 17 41 17 299 0 293 0 297 -40 273z m-34 -131 c38 -42 12 -151 -50
-208 -21 -20 -28 -22 -41 -11 -21 17 -19 33 6 56 37 33 62 115 39 129 -25 16
-100 -77 -100 -125 0 -12 -6 -17 -17 -15 -10 2 -21 4 -25 4 -15 2 -8 50 14 91
49 90 130 127 174 79z m14 -249 c0 -10 -33 -35 -87 -66 -131 -74 -142 -79
-155 -66 -7 7 2 18 33 37 68 44 143 86 162 92 9 3 17 9 17 12 0 4 7 8 15 8 8
0 15 -8 15 -17z m-80 -118 c0 -20 -136 -106 -156 -98 -26 10 -2 35 74 75 42
22 78 41 80 41 1 0 2 -8 2 -18z m120 -22 c0 -10 -63 -50 -79 -50 -23 0 -10 31
20 49 30 18 59 19 59 1z"/>
<path d="M5760 4558 c0 -593 -12 -528 113 -598 40 -23 86 -49 102 -59 98 -58
227 -131 232 -131 4 0 14 -6 22 -14 9 -7 45 -29 81 -47 36 -18 68 -38 72 -43
4 -6 8 -7 8 -3 0 4 6 3 13 -3 23 -21 161 -99 166 -94 3 2 7 236 9 519 l4 515
-25 22 c-14 13 -42 32 -64 43 -21 11 -54 29 -74 41 -32 20 -409 238 -463 267
-11 7 -28 17 -36 24 -8 6 -17 11 -20 11 -3 -1 -24 10 -47 25 -23 14 -53 29
-67 33 l-26 6 0 -514z m172 298 c31 -19 59 -32 62 -29 3 4 6 2 6 -3 0 -5 45
-34 100 -64 66 -36 99 -60 97 -70 -2 -8 -9 -14 -17 -14 -25 3 -45 9 -50 16 -3
4 -64 41 -135 83 -72 41 -136 79 -144 84 -15 9 -7 31 12 31 7 0 37 -15 69 -34z
m-77 -460 c0 -162 -3 -292 -7 -289 -5 2 -8 134 -8 294 0 159 3 289 8 289 4 0
7 -132 7 -294z m68 257 c23 -15 56 -35 72 -44 17 -9 46 -26 65 -37 19 -11 62
-35 95 -53 33 -17 67 -37 75 -43 8 -7 32 -21 53 -31 21 -11 44 -27 50 -35 10
-12 9 -13 -3 -4 -16 12 -105 62 -175 99 -22 11 -58 32 -81 47 -23 14 -69 41
-102 60 -64 34 -113 67 -99 68 4 0 26 -12 50 -27z m485 -298 c-3 -3 -9 2 -12
12 -6 14 -5 15 5 6 7 -7 10 -15 7 -18z m-1 -37 c-3 -8 -6 -5 -6 6 -1 11 2 17
5 13 3 -3 4 -12 1 -19z m-1 -525 c-5 -5 -58 22 -95 50 -34 24 -20 21 30 -8 24
-14 47 -25 52 -25 4 0 8 111 9 248 l3 247 2 -254 c2 -140 1 -256 -1 -258z
m101 328 c7 -10 9 -22 6 -25 -3 -3 -7 -88 -7 -188 -1 -166 -3 -183 -18 -186
-17 -3 -18 12 -18 207 0 163 3 211 13 211 7 0 18 -9 24 -19z m-580 -48 c26
-14 62 -35 78 -45 17 -10 39 -22 50 -28 11 -5 43 -23 70 -39 28 -17 71 -42 97
-56 26 -13 50 -29 53 -35 6 -10 -57 21 -105 50 -8 5 -58 34 -110 65 -52 31
-102 60 -110 65 -8 5 -30 17 -47 26 -30 15 -41 24 -28 24 2 0 26 -12 52 -27z"/>
<path d="M8240 4680 l0 -249 32 -23 c18 -13 80 -50 138 -84 167 -96 171 -98
207 -121 18 -13 40 -23 48 -23 17 0 18 19 18 319 1 201 17 170 -138 260 -55
31 -138 80 -184 107 -47 27 -93 52 -103 56 -17 7 -18 -6 -18 -242z"/>
<path d="M4357 4840 c-14 -11 -28 -20 -31 -20 -3 0 -29 -14 -58 -31 -61 -37
-81 -48 -203 -117 -49 -28 -107 -62 -127 -76 l-38 -26 0 -415 c0 -302 3 -415
11 -415 7 0 75 37 153 82 77 45 153 89 168 97 28 16 28 16 28 129 0 129 3 134
98 188 l52 29 0 298 c0 322 1 319 -53 277z m-97 -193 c0 -11 -19 -27 -65 -53
-11 -6 -60 -34 -110 -62 -93 -54 -119 -62 -113 -36 3 17 243 162 271 163 9 1
17 -5 17 -12z m-83 -244 c4 -10 -39 -38 -156 -105 -22 -12 -37 -16 -44 -9 -15
15 0 29 61 61 31 16 71 38 87 49 31 22 46 23 52 4z m71 -81 c2 -6 -15 -20 -37
-31 -22 -12 -81 -45 -130 -75 -53 -32 -94 -50 -101 -46 -18 11 -4 27 48 55 26
14 81 45 122 69 76 45 91 49 98 28z m-88 -319 c0 -12 -28 -34 -78 -62 -42 -25
-80 -49 -83 -53 -3 -5 -12 -2 -19 7 -17 21 -10 27 87 81 89 49 93 50 93 27z"/>
<path d="M4490 4288 l-55 -33 -5 -117 c-6 -133 -8 -138 -95 -183 l-55 -29 0
-93 c0 -58 4 -93 10 -93 12 0 59 25 178 94 54 32 87 57 93 74 13 33 7 404 -6
409 -6 2 -35 -12 -65 -29z"/>
<path d="M4343 4201 l-63 -41 0 -106 c0 -58 3 -104 8 -102 48 21 114 67 118
83 3 11 4 62 2 113 l-3 93 -62 -40z"/>
<path d="M5250 4586 c0 -9 5 -16 10 -16 6 0 10 4 10 9 0 6 -4 13 -10 16 -5 3
-10 -1 -10 -9z"/>
<path d="M5310 4440 c-8 -5 -10 -10 -5 -11 6 0 18 -2 28 -4 15 -3 16 -1 6 11
-14 16 -10 16 -29 4z"/>
<path d="M5136 4321 c-3 -4 3 -16 14 -26 11 -10 20 -16 21 -14 0 2 2 12 4 22
3 15 1 16 -13 5 -10 -8 -13 -9 -9 -1 4 6 3 14 -2 17 -5 4 -12 2 -15 -3z"/>
<path d="M5146 4251 c-11 -12 -14 -21 -7 -26 10 -6 14 0 13 16 -1 3 5 6 13 6
8 0 12 -4 9 -8 -2 -4 0 -10 5 -13 18 -12 20 12 2 28 -16 15 -19 15 -35 -3z"/>
<path d="M5304 4229 c-3 -5 -9 -7 -14 -4 -11 7 -28 -17 -25 -37 2 -9 -2 -22
-9 -27 -9 -8 -23 0 -51 29 -36 37 -40 39 -57 24 -17 -17 -15 -40 3 -28 5 3 7
9 5 13 -3 4 1 8 9 8 8 0 13 -5 12 -11 -1 -6 5 -10 13 -8 11 3 11 -1 -3 -16
-16 -18 -16 -20 6 -38 23 -21 67 -27 67 -9 1 6 22 31 47 58 26 26 45 47 43 48
-3 0 -13 2 -22 4 -10 2 -20 -1 -24 -6z m13 -13 c0 -8 -5 -14 -11 -13 -6 1 -10
-3 -9 -9 1 -6 -4 -11 -11 -11 -7 0 -13 6 -13 13 0 7 4 11 8 9 3 -3 12 2 19 10
15 19 17 19 17 1z m-90 -59 c13 -13 11 -34 -3 -34 -7 0 -12 5 -11 11 1 5 -4
11 -10 12 -23 3 -24 4 -19 13 7 10 32 9 43 -2z m53 9 c0 -2 -8 -10 -17 -17
-16 -13 -17 -12 -4 4 13 16 21 21 21 13z"/>
<path d="M5476 4181 c-4 -5 -2 -12 3 -15 5 -4 12 -2 15 3 4 5 2 12 -3 15 -5 4
-12 2 -15 -3z"/>
<path d="M7691 4207 c-2 -28 -4 -181 -5 -340 -2 -271 -1 -288 17 -305 18 -16
55 -39 157 -97 25 -14 59 -34 75 -44 17 -10 49 -29 72 -42 203 -117 293 -169
347 -199 35 -19 70 -40 77 -45 8 -6 39 -24 69 -39 30 -16 63 -36 73 -44 9 -8
17 -12 17 -9 0 4 16 -5 36 -18 20 -14 40 -22 45 -19 13 8 11 661 -2 685 -6 12
-17 18 -25 15 -7 -3 -13 -2 -11 2 1 4 -2 8 -7 9 -5 1 -12 6 -15 11 -3 5 -28
21 -56 36 -27 15 -59 32 -70 39 -71 44 -100 60 -103 58 -1 -1 -10 5 -18 14 -9
8 -20 13 -25 10 -5 -4 -9 -2 -9 3 0 5 -12 15 -27 22 -16 8 -35 20 -43 26 -8 7
-40 25 -70 41 -30 16 -73 40 -95 54 -22 13 -56 33 -77 44 -20 11 -83 47 -140
80 -57 33 -107 62 -113 64 -5 2 -18 10 -27 19 -10 8 -18 12 -18 7 0 -4 -6 -3
-13 4 -11 8 -14 0 -16 -42z m123 -89 c-6 -10 52 -39 61 -30 3 4 5 0 3 -8 -2
-10 4 -15 19 -14 12 1 21 -2 20 -6 -1 -5 0 -7 3 -6 3 0 16 -9 30 -21 21 -21
40 -28 63 -24 4 0 6 -5 5 -12 -2 -6 2 -11 7 -10 11 1 13 -522 3 -533 -7 -6
-60 20 -90 45 -10 8 -18 11 -18 7 0 -4 -10 2 -22 14 -20 18 -39 25 -60 21 -5
0 -7 3 -5 8 1 5 -2 10 -8 11 -5 1 -17 8 -26 16 -9 8 -19 11 -22 7 -4 -3 -7
117 -7 268 l0 274 24 0 c13 0 22 -3 20 -7z m314 -226 c8 -7 18 -10 23 -7 5 4
9 0 9 -8 0 -8 10 -18 23 -22 12 -4 24 -8 27 -9 3 -1 16 -9 30 -18 14 -9 37
-22 53 -29 15 -7 27 -16 27 -21 0 -5 5 -6 10 -3 6 3 10 2 10 -4 0 -8 31 -23
50 -24 3 0 11 -7 18 -14 8 -7 18 -11 23 -8 5 4 9 -1 9 -10 0 -9 4 -14 9 -11 5
3 14 -1 21 -9 7 -8 16 -12 21 -9 5 3 9 1 9 -3 0 -5 22 -20 50 -34 37 -18 49
-29 47 -45 -1 -20 -6 -19 -87 23 -47 25 -92 50 -100 57 -8 6 -28 18 -45 26
-16 8 -37 19 -45 26 -8 6 -37 24 -65 39 -27 15 -78 43 -112 62 -58 32 -73 50
-57 66 9 9 26 4 42 -11z m310 -310 c-4 -22 -30 -52 -44 -52 -15 0 -20 -23 -16
-72 3 -23 8 -35 15 -31 6 3 7 1 3 -5 -9 -15 17 -65 52 -101 51 -53 101 -64
103 -24 0 14 2 13 9 -4 8 -20 26 -28 53 -24 12 2 3 -22 -18 -44 -25 -26 -84
-31 -123 -11 -16 8 -33 12 -37 8 -3 -4 -5 -2 -3 3 2 6 -1 11 -6 12 -4 1 -16
13 -25 26 -9 13 -28 42 -42 63 -36 54 -49 98 -49 161 0 46 4 58 31 86 26 27
37 32 65 29 25 -3 34 -9 32 -20z m93 -49 c13 -16 12 -17 -3 -4 -10 7 -18 15
-18 17 0 8 8 3 21 -13z m14 -127 c9 -19 15 -43 12 -53 -3 -12 -5 -9 -6 9 0 15
-5 29 -10 32 -9 6 -22 46 -16 46 2 0 11 -15 20 -34z"/>
<path d="M7789 4098 c-5 -10 -3 -396 1 -393 9 5 6 -83 -3 -91 -8 -9 48 -45 74
-47 10 -1 17 -6 16 -12 -1 -5 8 -9 20 -9 12 1 21 -1 20 -5 -1 -3 0 -6 3 -6 3
0 16 -10 29 -22 19 -18 27 -20 38 -11 8 6 13 7 11 2 -2 -5 2 -9 7 -9 6 0 10
87 10 242 0 174 -3 243 -11 243 -6 0 -17 7 -24 15 -7 9 -15 13 -18 10 -3 -3
-14 2 -24 12 -10 9 -18 13 -18 9 0 -4 -10 2 -22 14 -20 18 -39 25 -60 21 -5 0
-7 5 -5 12 1 6 -4 11 -10 10 -7 -2 -13 2 -13 7 0 9 -18 15 -21 8z m169 -400
c-3 -117 -5 -133 -20 -136 -16 -3 -18 8 -18 126 0 71 3 132 7 135 3 4 12 7 20
7 11 0 13 -26 11 -132z m-90 -23 c4 -62 -3 -82 -23 -65 -15 13 -20 74 -9 105
12 30 29 9 32 -40z"/>
<path d="M935 4164 c-44 -26 -93 -54 -110 -64 -16 -9 -79 -45 -140 -80 -60
-34 -116 -70 -122 -78 -10 -12 -13 -88 -13 -303 0 -158 4 -290 8 -293 9 -5
446 244 471 269 14 14 16 50 14 298 -1 155 -3 285 -3 290 0 15 -28 5 -105 -39z"/>
<path d="M3033 3894 c-40 -20 -56 -60 -56 -139 -1 -97 47 -201 139 -306 18
-20 34 -45 37 -55 3 -11 11 -41 18 -67 l14 -48 20 47 c20 46 22 47 68 50 54 2
83 22 102 69 41 102 -15 272 -122 377 -86 83 -153 105 -220 72z m118 -149 l33
-54 32 20 33 20 15 -30 c20 -37 20 -61 2 -61 -7 0 -19 -7 -26 -15 -9 -11 -6
-24 17 -64 22 -41 25 -53 15 -63 -21 -21 -40 -2 -88 90 -1 2 -16 -4 -34 -13
-30 -15 -33 -15 -46 2 -20 26 -28 57 -17 60 6 2 19 10 29 17 18 13 17 16 -10
67 -28 50 -28 53 -11 66 11 7 20 13 21 13 1 0 16 -25 35 -55z"/>
<path d="M5182 3887 c-33 -33 -39 -46 -30 -55 7 -7 8 -12 3 -12 -5 0 4 -13 20
-30 25 -26 54 -33 39 -9 -3 5 -10 7 -15 3 -5 -3 -8 0 -7 8 2 7 -4 12 -12 10
-8 -2 -12 0 -8 4 4 4 3 13 -3 20 -7 8 -7 14 1 19 6 3 8 11 4 16 -3 5 0 8 8 7
7 -2 12 3 11 10 -2 6 3 11 10 10 6 -2 11 2 10 8 -1 6 4 11 12 11 8 0 12 -4 9
-8 -2 -4 0 -10 5 -13 18 -12 20 11 3 27 -17 16 -21 14 -60 -26z"/>
<path d="M5256 3921 c-4 -5 -2 -12 3 -15 5 -4 12 -2 15 3 4 5 2 12 -3 15 -5 4
-12 2 -15 -3z"/>
<path d="M5276 3901 c-18 -18 -24 -31 -17 -35 10 -7 15 0 12 17 0 4 5 6 12 5
6 -2 11 3 9 10 -1 8 2 11 7 8 5 -4 12 -2 15 3 15 24 -14 17 -38 -8z"/>
<path d="M5197 3862 l-27 -28 29 -28 c18 -17 31 -24 35 -17 7 10 0 15 -16 12
-5 0 -7 5 -5 12 1 6 -3 11 -9 10 -6 -1 -11 4 -11 12 0 8 5 13 11 12 6 -1 10 3
9 9 -1 6 4 11 12 11 8 0 12 -4 9 -8 -2 -4 0 -10 5 -13 18 -12 20 11 3 28 -17
15 -20 14 -45 -12z"/>
<path d="M5276 3861 c-18 -18 -24 -31 -17 -35 10 -7 14 -1 13 15 -1 3 5 6 12
6 7 0 13 -6 13 -13 0 -7 -3 -12 -6 -11 -3 1 -7 -1 -8 -5 -7 -19 -2 -20 17 -3
19 17 19 19 3 38 -10 11 -13 17 -6 14 13 -8 28 9 15 17 -5 3 -21 -8 -36 -23z"/>
<path d="M5216 3842 c-7 -12 28 -45 38 -35 4 5 6 1 4 -7 -2 -8 3 -14 10 -12 8
1 11 -2 8 -7 -4 -5 -2 -12 3 -15 5 -4 12 -2 15 2 3 5 -12 26 -33 46 -21 21
-41 34 -45 28z"/>
<path d="M5207 3752 c-38 -38 -38 -38 -17 -57 l20 -18 -20 -22 -20 -22 20 -18
c14 -13 17 -21 9 -31 -6 -8 -6 -14 0 -18 12 -8 18 3 16 34 0 14 -6 24 -11 23
-6 -1 -11 4 -11 12 0 8 5 13 11 12 5 -1 10 12 10 28 0 17 -5 29 -10 28 -6 -1
-11 4 -11 12 0 8 5 13 11 12 6 -1 10 4 9 11 -2 6 3 11 10 10 6 -2 11 2 10 8
-1 6 4 11 12 11 8 0 13 -5 12 -11 -1 -6 3 -10 8 -9 6 1 11 -14 11 -32 0 -18
-4 -32 -7 -29 -4 2 -10 0 -13 -5 -12 -19 12 -20 28 -2 12 13 14 21 6 26 -8 5
-8 11 -1 19 8 9 3 20 -17 39 l-28 27 -37 -38z"/>
<path d="M5226 3731 c-11 -12 -14 -21 -7 -26 10 -6 14 0 13 16 -1 3 5 6 12 6
7 0 13 -6 13 -13 0 -7 -4 -11 -8 -9 -8 6 -26 -16 -24 -30 1 -17 16 -36 24 -31
4 3 8 -1 8 -9 0 -8 -4 -12 -8 -10 -8 6 -26 -16 -24 -30 1 -17 16 -36 24 -31 4
3 8 -1 8 -9 0 -8 -4 -12 -8 -9 -4 2 -10 0 -13 -5 -9 -15 11 -22 21 -8 15 19 2
63 -16 53 -4 -3 -8 1 -8 9 0 8 4 12 8 9 8 -5 22 13 25 33 1 7 -4 17 -12 24
-11 9 -12 15 -2 26 30 36 5 78 -26 44z"/>
<path d="M5216 3641 c-4 -5 -2 -12 3 -15 5 -4 12 -2 15 3 4 5 2 12 -3 15 -5 4
-12 2 -15 -3z"/>
<path d="M5256 3601 c-4 -5 -2 -12 3 -15 5 -4 12 -2 15 3 4 5 2 12 -3 15 -5 4
-12 2 -15 -3z"/>
<path d="M5206 3551 c-11 -13 -14 -21 -7 -26 11 -6 15 1 12 18 -1 5 3 6 8 3 5
-4 12 -2 15 3 12 19 -12 20 -28 2z"/>
<path d="M5197 3502 c-27 -28 -27 -29 -8 -46 12 -11 21 -14 26 -7 6 10 0 14
-16 13 -3 -1 -6 5 -6 13 0 8 5 13 11 12 6 -1 10 3 9 9 -1 6 4 11 12 11 8 0 12
-4 9 -8 -2 -4 0 -10 5 -13 18 -12 20 11 3 28 -17 15 -20 14 -45 -12z"/>
<path d="M5215 3481 c-6 -11 1 -15 18 -12 5 1 6 -3 3 -8 -4 -5 -2 -12 3 -15
19 -12 20 12 2 28 -13 11 -21 14 -26 7z"/>
<path d="M5206 3431 c-11 -12 -14 -21 -7 -26 10 -6 14 0 13 16 -1 3 5 6 12 6
7 0 13 -6 13 -13 0 -7 -4 -11 -8 -8 -4 2 -10 0 -13 -5 -12 -18 12 -20 28 -2
15 16 15 19 -2 34 -18 16 -20 16 -36 -2z"/>
<path d="M5176 3361 c-15 -16 -23 -31 -18 -35 5 -3 17 3 27 14 13 14 22 17 31
9 20 -16 26 6 6 25 -17 15 -20 14 -46 -13z m24 5 c0 -2 -8 -10 -17 -17 -16
-13 -17 -12 -4 4 13 16 21 21 21 13z"/>
<path d="M2966 2932 c-3 -5 1 -9 9 -9 8 0 12 4 9 9 -3 4 -7 8 -9 8 -2 0 -6 -4
-9 -8z"/>
<path d="M2963 2853 c0 -9 4 -10 14 -2 7 6 13 12 13 14 0 1 -6 2 -13 2 -8 0
-14 -6 -14 -14z"/>
<path d="M3046 2852 c-3 -5 1 -9 9 -9 8 0 12 4 9 9 -3 4 -7 8 -9 8 -2 0 -6 -4
-9 -8z"/>
<path d="M2834 2819 c-14 -15 -21 -29 -16 -33 12 -7 44 28 35 39 -5 4 -2 5 6
0 9 -5 12 -4 7 3 -8 13 18 10 36 -6 8 -6 19 -8 23 -4 5 4 5 1 0 -7 -6 -10 -4
-12 5 -6 9 5 11 4 6 -4 -5 -7 -2 -10 5 -9 7 2 13 -2 14 -9 0 -20 12 -24 25 -8
11 13 11 16 -1 13 -8 -2 -13 3 -11 10 1 6 -4 11 -10 10 -7 -2 -12 2 -11 8 1 6
-8 11 -20 10 -12 0 -21 4 -20 10 4 21 -48 9 -73 -17z"/>
<path d="M2867 2812 c-16 -18 -16 -20 2 -36 12 -11 21 -14 26 -7 6 10 0 14
-16 13 -3 -1 -6 5 -6 12 0 7 6 13 13 13 7 0 12 -5 11 -11 -1 -6 4 -10 11 -8 8
1 11 -2 8 -7 -11 -18 12 -21 25 -3 7 9 9 14 4 9 -5 -4 -21 4 -35 18 -26 25
-27 25 -43 7z"/>
<path d="M3323 2816 c0 -15 22 -15 34 0 4 5 4 6 -1 2 -5 -4 -14 -3 -21 2 -8 7
-12 5 -12 -4z"/>
<path d="M3166 2778 c3 -5 10 -6 15 -3 13 9 11 12 -6 12 -8 0 -12 -4 -9 -9z"/>
<path d="M2884 2749 c-21 -23 -27 -49 -11 -46 7 1 11 -3 10 -8 -1 -6 14 -11
32 -11 18 0 32 4 29 8 -2 4 -13 5 -24 3 -11 -2 -22 1 -26 6 -3 5 -1 8 4 7 9
-3 12 2 12 18 0 4 -6 1 -14 -5 -10 -8 -16 -9 -21 -1 -4 6 -1 9 7 8 7 -2 12 3
10 10 -1 8 2 11 7 8 5 -4 12 -2 15 3 13 20 -12 20 -30 0z"/>
<path d="M2926 2751 c-11 -13 -14 -21 -7 -26 11 -6 15 1 12 18 -1 5 3 6 8 3 5
-4 12 -2 15 3 12 19 -12 20 -28 2z"/>
<path d="M2948 2732 c-18 -19 -28 -32 -22 -29 7 4 17 0 24 -8 13 -16 35 -10
24 6 -3 5 -9 7 -13 5 -4 -3 -8 1 -8 9 0 8 5 13 11 12 6 -1 10 4 9 11 -2 6 0
11 5 11 4 -1 9 0 12 1 21 8 39 7 34 -2 -4 -7 -2 -8 5 -4 7 5 10 2 9 -5 -2 -7
2 -13 7 -14 6 0 15 -3 20 -6 6 -4 18 -5 27 -4 10 2 16 -2 15 -8 -1 -6 5 -11
13 -12 8 0 15 -5 15 -12 0 -20 12 -24 25 -8 11 13 11 16 -1 13 -8 -2 -13 3
-11 12 2 8 0 12 -4 7 -4 -4 -21 5 -37 20 -16 16 -27 24 -25 18 2 -5 -1 -10 -7
-10 -5 0 -8 5 -7 10 2 6 0 7 -4 3 -4 -4 -14 -2 -22 4 -27 23 -60 16 -94 -20z"/>
<path d="M3420 2766 c0 -2 8 -10 18 -17 15 -13 16 -12 3 4 -13 16 -21 21 -21
13z"/>
<path d="M2987 2732 c-16 -18 -16 -20 2 -36 12 -11 21 -14 26 -7 6 10 0 14
-16 13 -3 -1 -6 5 -6 12 0 7 6 13 13 13 7 0 11 -4 8 -8 -2 -4 0 -10 5 -13 18
-12 20 12 2 28 -16 15 -19 15 -34 -2z"/>
<path d="M3723 2737 c0 -8 6 -14 14 -14 9 0 10 4 2 14 -6 7 -12 13 -14 13 -1
0 -2 -6 -2 -13z"/>
<path d="M3483 2713 c0 -9 4 -10 14 -2 7 6 13 12 13 14 0 1 -6 2 -13 2 -8 0
-14 -6 -14 -14z"/>
<path d="M3031 2696 c-16 -17 -18 -23 -7 -23 8 0 12 5 9 10 -3 6 -1 7 5 3 6
-3 14 -2 17 4 5 8 11 8 20 0 9 -8 15 -8 20 0 3 5 4 11 1 11 -3 1 -9 2 -13 3
-5 1 -13 4 -19 8 -6 4 -21 -3 -33 -16z"/>
<path d="M3363 2695 c0 -6 6 -12 12 -12 6 0 12 6 12 12 0 6 -6 12 -12 12 -6 0
-12 -6 -12 -12z"/>
<path d="M2979 2683 c-1 -4 -1 -12 0 -17 1 -5 -4 -4 -12 2 -19 16 -30 3 -14
-16 9 -13 9 -14 0 -8 -12 6 -18 -11 -14 -36 0 -5 -5 -7 -11 -5 -7 1 -12 -3
-11 -10 1 -6 -4 -17 -13 -24 -8 -7 -14 -8 -12 -3 2 5 -1 10 -7 12 -5 1 -9 -5
-9 -13 1 -8 2 -21 3 -29 1 -17 56 -40 72 -30 7 4 10 3 6 -3 -4 -6 2 -18 13
-28 11 -10 20 -15 20 -11 0 4 10 -2 22 -14 20 -18 39 -25 60 -21 5 0 7 -4 5
-11 -1 -7 3 -12 8 -13 6 0 22 -9 37 -19 15 -9 33 -19 41 -20 8 -1 21 -6 28
-12 16 -12 39 -13 39 -1 0 4 0 10 0 13 0 4 -6 1 -14 -5 -10 -8 -16 -9 -21 -1
-4 6 -1 9 7 8 7 -2 12 3 11 9 -2 7 3 12 10 10 6 -1 11 4 10 10 -2 7 2 12 9 10
7 -1 12 3 13 8 0 6 3 15 7 21 4 6 4 14 0 18 -4 4 -7 25 -7 47 0 21 -4 38 -10
37 -5 -2 -9 -6 -8 -9 1 -3 -4 -6 -12 -6 -8 0 -13 5 -12 11 1 6 -4 10 -10 9 -7
-2 -12 3 -10 10 1 6 -4 11 -10 10 -7 -2 -12 0 -10 5 1 4 -2 7 -8 7 -5 0 -9 -4
-7 -10 2 -5 -5 -2 -16 8 -10 9 -22 14 -26 10 -4 -5 -6 -3 -4 4 2 6 -1 11 -7
12 -5 1 -10 -8 -10 -18 0 -11 -15 -35 -33 -54 -18 -18 -29 -37 -25 -41 5 -4 1
-6 -7 -4 -9 2 -14 -3 -12 -11 2 -11 0 -12 -11 -3 -8 7 -18 8 -22 4 -5 -4 -5
-1 0 7 5 9 4 12 -2 8 -5 -3 -10 0 -10 8 0 8 5 13 11 12 6 -1 10 4 8 11 -1 8 2
11 7 8 16 -10 29 18 32 69 2 36 -1 49 -10 47 -7 -1 -10 2 -6 8 5 8 11 7 21 -1
13 -10 18 -6 15 14 0 4 3 6 8 5 8 -3 11 2 11 18 0 4 -7 0 -16 -7 -17 -14 -67
-21 -58 -8 2 4 0 10 -6 14 -5 3 -11 3 -11 -2z"/>
<path d="M3073 2658 c-15 -15 -28 -34 -29 -41 -2 -18 38 -16 60 2 16 14 12 36
-5 25 -5 -3 -6 -10 -3 -16 5 -7 2 -8 -6 -3 -8 5 -11 4 -6 -3 7 -12 -19 -10
-31 2 -4 4 -1 6 7 4 8 -1 14 3 13 10 -2 6 3 11 10 10 6 -2 11 3 9 10 -1 8 2
11 7 8 5 -3 14 0 20 7 22 27 -18 14 -46 -15z"/>
<path d="M3460 2686 c0 -2 8 -10 18 -17 15 -13 16 -12 3 4 -13 16 -21 21 -21
13z"/>
<path d="M3846 2672 c-3 -5 1 -9 9 -9 8 0 12 4 9 9 -3 4 -7 8 -9 8 -2 0 -6 -4
-9 -8z"/>
<path d="M3116 2661 c-4 -5 -2 -13 4 -16 8 -5 8 -11 1 -19 -8 -9 -6 -18 8 -30
12 -11 21 -14 26 -7 6 10 0 14 -15 13 -4 0 -6 10 -6 22 0 16 5 23 16 21 8 -1
21 3 29 9 12 9 13 8 6 -3 -6 -10 -4 -12 5 -6 8 5 11 4 7 -2 -4 -6 3 -10 16 -9
12 0 22 -5 22 -11 0 -7 5 -13 10 -14 6 0 15 -4 20 -9 6 -4 18 -6 28 -5 10 2
14 -1 11 -7 -5 -7 -2 -8 6 -3 8 5 11 4 6 -3 -11 -18 11 -23 25 -4 7 9 9 14 4
9 -5 -4 -22 5 -38 20 -16 16 -27 23 -25 17 2 -7 -1 -12 -7 -12 -5 0 -9 4 -7 9
1 5 -4 8 -10 7 -7 -2 -11 4 -10 12 2 8 0 12 -4 8 -4 -4 -14 -2 -22 4 -17 15
-61 18 -68 6 -3 -5 -12 -4 -19 2 -8 7 -15 7 -19 1z"/>
<path d="M2830 2615 l-30 -31 20 -19 c27 -24 49 -27 45 -6 -4 27 15 43 34 29
9 -7 13 -8 8 -3 -4 4 0 16 8 25 14 15 13 17 -12 15 -16 -1 -27 -7 -25 -14 1
-7 -2 -9 -9 -5 -8 5 -9 3 -4 -6 6 -9 4 -11 -5 -5 -9 6 -11 4 -5 -6 5 -8 5 -11
0 -7 -4 4 -13 3 -20 -2 -8 -7 -12 -5 -12 5 0 8 5 11 10 8 6 -3 7 -1 3 6 -5 7
-2 10 6 9 7 -2 12 3 10 10 -1 8 2 11 7 8 5 -3 14 0 20 7 23 29 -19 13 -49 -18z
m30 -51 c0 -8 -19 -13 -24 -6 -3 5 1 9 9 9 8 0 15 -2 15 -3z"/>
<path d="M3145 2631 c-2 -4 15 -27 39 -50 28 -28 46 -39 51 -31 12 19 33 -8
30 -39 -2 -23 1 -28 19 -27 12 1 20 -4 19 -11 -2 -7 3 -12 10 -10 6 1 11 -4 9
-11 -1 -8 2 -11 8 -7 16 10 12 -15 -5 -32 -8 -8 -13 -18 -10 -22 2 -5 -5 -8
-18 -7 -13 1 -21 -4 -20 -11 2 -7 -3 -12 -10 -10 -6 1 -11 -4 -9 -11 1 -8 -2
-11 -7 -8 -5 3 -14 -1 -21 -9 -10 -12 -8 -14 9 -10 12 2 20 -1 18 -8 -1 -7 4
-11 11 -9 8 1 11 -2 8 -7 -8 -12 59 -45 73 -36 6 3 11 -2 11 -11 0 -10 3 -14
7 -11 3 4 17 -3 30 -15 13 -12 23 -20 24 -17 6 27 4 57 -4 52 -6 -4 -7 -1 -2
7 5 9 4 11 -4 6 -6 -4 -9 -11 -6 -16 10 -16 -13 -20 -26 -4 -10 12 -10 15 2
12 8 -2 13 3 11 10 -1 8 1 11 6 8 5 -3 20 6 33 21 13 14 18 23 11 19 -11 -7
-13 1 -11 35 2 30 -1 43 -9 42 -7 -2 -11 3 -9 10 1 6 -4 11 -10 10 -7 -2 -12
3 -10 10 1 6 -4 11 -10 10 -7 -2 -12 0 -10 5 1 4 -2 7 -8 7 -5 0 -9 -4 -7 -9
2 -5 -4 -4 -12 3 -9 7 -13 18 -9 24 3 5 1 7 -4 4 -6 -4 -16 0 -23 8 -7 8 -17
12 -24 8 -6 -3 -8 -3 -4 2 4 4 3 14 -4 22 -6 8 -7 13 -2 11 5 -2 9 2 9 7 0 6
-4 9 -8 7 -5 -1 -5 3 -1 9 5 8 3 9 -6 4 -9 -6 -11 -4 -5 5 6 9 4 11 -5 5 -9
-5 -11 -4 -6 4 6 8 12 9 20 2 7 -6 17 -7 21 -3 5 4 5 1 0 -7 -6 -10 -4 -12 5
-6 9 6 11 4 5 -5 -6 -9 -4 -11 5 -5 8 5 11 4 6 -3 -3 -6 -2 -13 3 -16 24 -15
17 14 -9 39 -17 16 -30 25 -30 21 0 -5 -7 -3 -15 4 -8 7 -15 9 -15 5 0 -4 -7
-2 -15 5 -8 7 -13 16 -10 20 3 5 -3 7 -12 5 -10 -1 -22 0 -28 4 -16 9 -34 10
-40 2z m65 -26 c0 4 6 2 14 -4 8 -7 13 -20 12 -29 -3 -19 -21 -19 -21 1 0 6
-5 12 -12 12 -15 0 -26 12 -29 31 -2 13 0 13 17 -2 10 -9 19 -14 19 -9z m207
-370 c0 -8 -4 -12 -9 -9 -5 3 -6 10 -3 15 9 13 12 11 12 -6z"/>
<path d="M3843 2615 c0 -6 6 -12 12 -12 6 0 12 6 12 12 0 6 -6 12 -12 12 -6 0
-12 -6 -12 -12z"/>
<path d="M4050 2615 c-7 -8 -16 -13 -20 -10 -4 2 -16 -5 -26 -18 -19 -22 -19
-22 2 -4 11 9 23 15 26 12 3 -3 13 4 23 15 10 11 16 20 13 20 -3 0 -11 -7 -18
-15z"/>
<path d="M3363 2576 c1 -5 -4 -10 -10 -11 -7 0 -13 -3 -13 -7 0 -5 0 -11 0
-14 0 -4 6 -1 14 5 10 8 16 9 21 1 3 -6 11 -8 16 -4 6 4 6 10 0 18 -6 7 -9 15
-6 18 3 2 -1 5 -9 5 -8 0 -14 -5 -13 -11z"/>
<path d="M3404 2576 c4 -25 18 -37 31 -26 9 7 16 6 25 -5 7 -8 17 -12 23 -8 6
4 7 1 2 -7 -6 -9 -4 -11 5 -5 8 5 11 4 6 -3 -4 -7 1 -10 14 -7 11 2 22 -1 26
-6 3 -5 2 -8 -3 -7 -4 2 -9 0 -10 -4 -6 -18 -2 -20 14 -7 12 10 15 10 9 1 -4
-7 -4 -12 1 -11 4 1 11 0 16 -1 4 -1 13 -3 20 -4 6 0 12 -6 12 -13 0 -20 12
-24 25 -8 11 13 11 16 -1 13 -8 -2 -13 3 -12 9 2 7 -3 12 -10 10 -6 -1 -11 3
-10 9 1 6 -8 11 -20 10 -16 -1 -22 4 -21 20 1 11 -5 21 -12 21 -7 0 -12 -4
-11 -8 1 -4 -2 -7 -8 -7 -5 0 -9 3 -8 8 1 4 -8 7 -20 6 -12 0 -21 4 -20 10 1
6 -8 11 -20 10 -12 0 -21 4 -20 10 1 6 -4 11 -11 11 -8 0 -13 -5 -12 -11z"/>
<path d="M3043 2536 c1 -6 -3 -10 -9 -9 -16 3 -48 -34 -36 -41 5 -3 23 10 41
28 20 21 26 33 17 33 -8 0 -14 -5 -13 -11z"/>
<path d="M3359 2543 c-1 -4 -1 -11 0 -15 0 -5 -3 -7 -8 -5 -5 1 -8 -2 -7 -8 0
-5 4 -9 7 -8 3 1 6 -5 6 -13 0 -12 -3 -12 -17 1 -9 8 -20 12 -25 8 -4 -5 -5
-3 -1 4 7 13 -10 28 -18 14 -6 -9 31 -47 43 -44 3 0 5 -4 3 -10 -2 -6 6 -3 17
7 11 10 18 23 15 28 -3 4 -1 7 4 6 6 -2 10 2 10 7 0 6 -4 9 -10 7 -5 -1 -7 2
-4 7 4 5 2 12 -4 16 -5 3 -11 3 -11 -2z"/>
<path d="M3396 2541 c-4 -5 -2 -12 3 -15 5 -4 12 -2 15 3 4 5 2 12 -3 15 -5 4
-12 2 -15 -3z"/>
<path d="M3439 2543 c-1 -4 0 -12 1 -18 1 -5 -2 -7 -6 -2 -10 9 -45 -23 -38
-35 3 -4 1 -7 -4 -6 -6 2 -10 -1 -10 -7 0 -5 4 -9 10 -7 5 1 7 -1 4 -6 -3 -5
8 -21 24 -37 15 -15 27 -35 25 -44 -2 -10 3 -18 10 -18 8 0 13 3 12 6 -1 3 3
7 8 8 6 0 9 -3 8 -8 -2 -5 1 -8 6 -6 5 1 8 -2 8 -8 -1 -5 -5 -9 -8 -8 -3 1 -6
-4 -6 -12 0 -8 5 -13 11 -12 5 1 11 -4 12 -10 1 -7 2 -16 3 -20 0 -3 10 2 21
12 11 10 18 21 15 25 -2 4 9 20 25 35 26 25 33 54 9 39 -5 -3 -7 -10 -3 -15 3
-5 0 -8 -8 -7 -7 2 -12 -3 -10 -10 1 -8 -2 -11 -7 -8 -5 4 -13 1 -16 -5 -5 -7
-17 -1 -35 16 -16 15 -32 27 -37 26 -4 -1 -8 5 -8 12 -1 6 -6 11 -13 10 -7 -2
-11 3 -9 10 1 6 -3 11 -9 10 -6 -1 -11 4 -11 12 0 8 3 13 6 12 3 -1 6 3 6 8 0
6 -3 9 -6 8 -3 -1 -6 4 -6 11 0 7 6 13 13 13 7 0 12 -4 11 -8 -1 -4 3 -7 8 -7
6 0 9 3 8 7 -1 4 4 8 12 8 8 0 12 -4 9 -8 -10 -16 14 -18 27 -2 8 9 9 14 3 10
-7 -4 -17 0 -24 8 -7 8 -17 12 -23 8 -5 -3 -7 -1 -3 5 3 6 2 13 -4 17 -5 3
-11 3 -11 -2z m97 -210 c-1 -7 -8 -19 -16 -26 -9 -8 -11 -8 -6 0 3 6 2 14 -4
18 -13 8 -5 22 13 22 8 0 14 -6 13 -14z"/>
<path d="M3763 2535 c0 -6 6 -12 12 -12 6 0 12 6 12 12 0 6 -6 12 -12 12 -6 0
-12 -6 -12 -12z"/>
<path d="M3446 2471 c-15 -16 -15 -19 3 -35 12 -11 21 -14 26 -7 6 10 0 14
-16 13 -3 -1 -6 5 -6 13 0 8 4 12 8 9 4 -2 10 0 13 5 12 18 -12 20 -28 2z"/>
<path d="M3486 2471 c-11 -13 -14 -21 -7 -26 11 -6 15 1 12 18 -1 5 3 6 8 3 5
-4 12 -2 15 3 12 19 -12 20 -28 2z"/>
<path d="M3494 2437 c-22 -22 -34 -37 -28 -34 6 4 22 -5 34 -18 l24 -25 31 30
c31 30 32 30 50 10 17 -19 41 -19 29 1 -3 5 -10 6 -16 3 -6 -4 -8 -2 -5 3 4 6
-2 18 -13 28 -11 10 -17 22 -14 27 3 4 2 8 -3 7 -4 -1 -10 0 -13 1 -26 10 -43
2 -76 -33z m63 19 c-1 -6 3 -10 10 -9 6 1 16 -4 22 -11 9 -11 7 -13 -11 -12
-14 0 -22 -4 -20 -11 1 -7 -4 -12 -10 -10 -7 1 -12 -3 -11 -9 1 -6 -4 -11 -12
-11 -8 0 -13 5 -12 11 1 6 -3 10 -9 9 -6 -1 -11 4 -11 12 0 8 5 13 11 12 6 -1
10 4 9 11 -2 6 3 11 10 10 6 -2 11 2 10 8 -1 6 4 11 12 11 8 0 13 -5 12 -11z"/>
<path d="M3526 2431 c-10 -11 -13 -22 -8 -25 5 -3 17 3 26 13 10 11 13 22 8
25 -5 3 -17 -3 -26 -13z"/>
<path d="M2830 2466 c0 -4 24 -18 146 -87 18 -9 91 -52 163 -95 72 -42 133
-75 136 -73 2 3 -28 23 -68 45 -40 23 -139 80 -221 127 -147 86 -156 91 -156
83z"/>
<path d="M3643 2456 c1 -5 -3 -10 -10 -11 -24 -1 -22 -12 9 -41 18 -16 28 -22
22 -14 -9 13 -11 34 -4 43 9 11 5 34 -6 34 -7 0 -12 -5 -11 -11z m17 -10 c0
-2 -8 -10 -17 -17 -16 -13 -17 -12 -4 4 13 16 21 21 21 13z"/>
<path d="M2811 2416 c17 -16 219 -129 219 -122 0 5 -207 126 -216 126 -4 0 -5
-2 -3 -4z"/>
<path d="M3244 2389 c-8 -9 -11 -20 -6 -23 5 -3 17 3 27 14 10 11 21 17 26 15
4 -3 10 -2 13 3 10 16 -45 8 -60 -9z"/>
<path d="M2803 2363 c7 -11 84 -57 327 -196 58 -32 108 -61 113 -64 4 -2 7 -2
7 1 0 2 -51 34 -112 69 -235 135 -288 167 -315 184 -15 10 -24 13 -20 6z"/>
<path d="M2805 2303 c6 -5 84 -53 175 -105 220 -128 267 -153 255 -141 -5 6
-82 52 -170 103 -190 111 -274 157 -260 143z"/>
<path d="M3427 2294 c-4 -4 -3 -12 0 -18 10 -15 11 -76 2 -71 -9 6 -28 -17
-32 -41 -2 -10 -9 -32 -16 -48 -19 -46 -24 -138 -12 -195 11 -51 43 -101 81
-128 14 -10 17 -9 16 10 -1 12 -5 27 -9 34 -4 6 -3 14 1 17 10 6 10 46 -1 63
-4 6 -3 15 3 18 8 5 8 11 0 20 -8 10 -8 15 0 20 8 5 8 10 0 20 -6 7 -7 16 -3
18 11 7 10 128 -1 146 -6 9 -5 12 0 8 16 -9 10 79 -6 98 -8 10 -13 20 -12 22
6 8 -4 13 -11 7z m30 -59 c0 -8 -4 -12 -9 -9 -5 3 -6 10 -3 15 9 13 12 11 12
-6z"/>
<path d="M3040 2286 c0 -6 184 -115 207 -122 10 -3 -25 20 -77 51 -116 69
-130 77 -130 71z"/>
<path d="M2800 2245 c0 -2 30 -21 68 -41 37 -21 96 -55 131 -77 35 -21 65 -36
68 -34 2 3 -49 35 -114 73 -116 68 -153 87 -153 79z"/>
<path d="M2854 2160 c26 -17 50 -30 51 -28 5 5 -56 46 -80 53 -11 4 2 -7 29
-25z"/>
<path d="M2855 2115 c23 -19 105 -63 90 -47 -5 5 -32 22 -60 37 -27 15 -41 19
-30 10z"/>
<path d="M2920 2127 c0 -3 42 -30 93 -60 111 -65 137 -79 137 -73 0 2 -35 24
-77 49 -43 25 -95 55 -115 67 -21 12 -38 20 -38 17z"/>
<path d="M3095 2075 c11 -9 34 -23 50 -31 28 -14 29 -14 10 1 -11 9 -33 23
-50 31 -28 14 -29 14 -10 -1z"/>
<path d="M2965 2053 c6 -5 33 -22 60 -37 28 -15 41 -20 30 -11 -22 19 -106 63
-90 48z"/>
<path d="M3180 2026 c0 -2 16 -13 36 -25 19 -12 32 -16 29 -11 -7 11 -65 43
-65 36z"/>
<path d="M3085 1983 c6 -6 33 -23 60 -38 28 -16 46 -24 40 -18 -5 6 -32 23
-60 38 -27 16 -45 24 -40 18z"/>
<path d="M3165 1983 c6 -6 33 -23 60 -38 28 -16 46 -24 40 -18 -5 6 -32 23
-60 38 -27 16 -45 24 -40 18z"/>
<path d="M3220 1906 c0 -3 14 -12 30 -21 17 -9 30 -13 30 -11 0 3 -13 12 -30
21 -16 9 -30 13 -30 11z"/>
<path d="M7006 2878 c3 -5 10 -6 15 -3 13 9 11 12 -6 12 -8 0 -12 -4 -9 -9z"/>
<path d="M6825 2740 c3 -5 1 -12 -5 -15 -8 -5 -8 -11 0 -20 8 -9 8 -15 0 -20
-6 -3 -8 -11 -4 -16 4 -6 10 -7 17 0 7 5 17 10 22 10 6 1 10 4 10 9 0 4 4 12
8 18 4 7 0 18 -9 25 -18 15 -47 22 -39 9z m31 -35 c0 -12 -6 -22 -13 -22 -6 0
-10 4 -7 8 2 4 0 10 -6 14 -13 8 -5 22 13 22 7 0 13 -10 13 -22z"/>
<path d="M6783 2684 c4 -6 -2 -19 -12 -28 -19 -17 -22 -39 -8 -53 4 -3 -7 -22
-25 -40 -30 -31 -33 -40 -34 -97 -1 -49 2 -63 13 -62 7 1 12 6 11 12 -2 5 -6
8 -9 7 -3 -1 -6 4 -6 12 0 8 3 12 7 10 4 -2 19 9 34 24 18 18 24 31 17 35 -11
7 -15 0 -12 -17 1 -5 -4 -5 -10 -1 -8 5 -9 3 -4 -6 6 -9 4 -11 -5 -5 -8 5 -11
4 -7 -2 3 -5 0 -10 -7 -10 -7 0 -13 6 -13 13 0 7 3 12 6 11 3 -1 7 3 8 8 0 6
-2 9 -6 8 -4 -1 -8 4 -8 12 0 8 5 13 11 12 6 -1 10 4 8 11 -1 8 2 11 9 6 8 -5
9 -3 4 7 -5 8 -4 11 1 6 5 -5 9 -13 9 -18 0 -5 3 -9 8 -9 4 0 10 0 13 0 4 0 1
6 -5 13 -8 11 -5 19 15 38 14 13 28 22 32 19 3 -3 7 7 7 22 1 18 -7 35 -23 50
-14 13 -22 18 -19 12z m15 -26 c-2 -7 2 -12 8 -11 6 1 11 -4 11 -12 0 -8 -5
-13 -11 -12 -6 1 -10 -3 -9 -10 1 -6 -4 -16 -12 -23 -12 -10 -13 -8 -10 9 2
11 -1 23 -6 27 -6 4 -4 13 7 25 20 22 25 24 22 7z"/>
<path d="M6776 2641 c-4 -5 -2 -12 3 -15 5 -4 12 -2 15 3 4 5 2 12 -3 15 -5 4
-12 2 -15 -3z"/>
<path d="M6736 2521 c-4 -5 -2 -12 3 -15 5 -4 12 -2 15 3 4 5 2 12 -3 15 -5 4
-12 2 -15 -3z"/>
<path d="M6720 2377 c0 -10 -7 -15 -19 -12 -11 2 -27 -5 -35 -14 -15 -16 -15
-19 -1 -31 12 -10 13 -16 4 -26 -6 -8 -15 -12 -19 -9 -5 3 -12 0 -16 -6 -4 -7
-3 -9 4 -5 6 3 14 2 17 -4 5 -8 11 -8 20 0 12 10 32 -3 34 -22 1 -5 3 -7 4 -5
2 1 11 -4 19 -10 8 -7 18 -10 21 -6 10 9 -24 44 -36 36 -6 -4 -7 -1 -2 7 6 9
4 11 -5 5 -9 -6 -11 -4 -5 5 6 9 4 11 -6 5 -8 -5 -11 -5 -7 0 4 4 3 14 -3 21
-7 8 -7 14 1 19 8 5 8 10 0 20 -9 10 -7 13 7 10 10 -1 24 2 31 8 10 8 12 7 10
-4 -2 -8 2 -13 8 -12 6 1 11 -4 11 -12 0 -8 -5 -11 -10 -8 -6 4 -7 1 -2 -7 6
-9 4 -11 -5 -5 -9 6 -11 4 -5 -5 5 -8 4 -11 -3 -6 -6 3 -13 2 -16 -3 -15 -23
13 -18 38 7 l26 28 -30 29 c-23 22 -30 25 -30 12z m-43 -42 c0 -8 -4 -12 -9
-9 -5 3 -6 10 -3 15 9 13 12 11 12 -6z"/>
<path d="M6712 2332 c8 -10 9 -13 1 -9 -6 4 -14 3 -17 -2 -12 -19 12 -20 29
-1 10 11 16 20 14 21 -2 0 -12 2 -22 4 -15 3 -16 1 -5 -13z"/>
<path d="M6736 2281 c-4 -5 -2 -12 3 -15 5 -4 12 -2 15 3 4 5 2 12 -3 15 -5 4
-12 2 -15 -3z"/>
<path d="M6836 2181 c-4 -5 -2 -12 3 -15 5 -4 12 -2 15 3 4 5 2 12 -3 15 -5 4
-12 2 -15 -3z"/>
<path d="M6990 2623 c-50 -18 -100 -105 -100 -173 0 -77 81 -124 86 -50 6 73
16 104 46 132 28 26 41 32 61 29 15 -2 6 30 -13 49 -19 19 -49 24 -80 13z"/>
<path d="M7786 2251 c-23 -24 -34 -41 -27 -45 11 -7 15 0 12 17 -1 5 4 5 10 1
8 -5 9 -3 4 6 -6 9 -4 11 5 5 9 -5 11 -4 6 4 -5 7 -2 10 6 9 7 -2 12 2 11 8
-1 6 4 11 11 11 7 0 13 -6 13 -13 0 -7 -3 -12 -6 -11 -3 1 -6 -2 -6 -8 0 -5 3
-9 6 -8 3 1 6 -4 6 -12 0 -8 -3 -13 -6 -12 -3 1 -7 -1 -8 -5 -7 -19 -2 -20 17
-3 11 10 17 22 13 28 -3 5 -1 7 5 3 6 -3 13 -2 17 4 4 6 10 8 15 5 5 -3 11 -1
14 4 3 5 -8 7 -24 6 -27 -2 -29 -1 -18 14 7 9 8 13 3 8 -4 -4 -16 0 -25 8 -15
13 -20 11 -54 -24z"/>
<path d="M6980 2226 c15 -15 38 -16 49 -2 7 9 1 12 -24 12 -23 0 -31 -4 -25
-10z"/>
<path d="M7776 2201 c-15 -16 -23 -31 -18 -35 5 -3 21 8 36 23 15 16 23 31 18
35 -5 3 -21 -8 -36 -23z"/>
<path d="M7888 2068 c-26 -9 -58 -60 -58 -93 0 -27 20 -55 39 -55 24 0 71 54
72 83 3 59 -13 79 -53 65z"/>
<path d="M7983 1983 c4 -6 3 -14 -3 -18 -6 -4 -8 -11 -4 -16 4 -6 11 -6 19 1
10 8 15 8 21 -1 4 -7 3 -9 -4 -5 -6 3 -13 2 -16 -3 -4 -5 -2 -12 3 -15 5 -4
12 -2 16 4 4 6 11 8 16 4 5 -3 6 -11 2 -17 -10 -16 -13 -38 -4 -33 4 3 7 -6 7
-18 0 -12 -6 -23 -12 -23 -7 0 -12 3 -11 6 1 3 -1 7 -5 9 -18 5 -20 1 -7 -15
13 -16 12 -17 -3 -5 -20 16 -34 -1 -14 -17 10 -9 16 -8 26 4 7 8 16 13 20 10
4 -2 15 4 24 14 12 13 14 21 6 26 -5 3 -8 11 -4 16 3 5 2 9 -3 8 -20 -3 -25 2
-13 16 8 9 17 12 24 7 18 -14 48 -23 41 -12 -3 6 -12 10 -19 10 -8 0 -19 7
-26 15 -6 8 -17 13 -23 12 -7 -1 -10 5 -9 13 2 8 0 12 -4 7 -4 -4 -16 1 -27
10 -11 10 -17 13 -14 6z"/>
<path d="M7940 1958 c0 -19 24 -40 35 -30 5 4 5 2 1 -5 -7 -13 10 -28 18 -15
3 5 -8 22 -24 37 -22 21 -30 24 -30 13z"/>
<path d="M8006 1912 c-15 -18 -15 -20 6 -38 13 -11 18 -13 12 -4 -12 20 -12
33 -1 48 14 19 2 14 -17 -6z"/>
<path d="M7955 1901 c-6 -10 0 -14 16 -13 3 1 6 -5 6 -13 0 -8 -3 -12 -7 -10
-4 3 -15 -4 -24 -14 -11 -13 -14 -21 -7 -26 11 -6 15 1 12 18 -1 5 3 6 7 3 5
-3 17 3 26 13 15 16 15 19 -3 35 -12 11 -21 14 -26 7z"/>
<path d="M7856 1841 c-17 -18 -24 -31 -17 -35 11 -7 15 0 12 17 -1 5 4 5 10 1
8 -5 9 -3 4 6 -6 9 -4 11 5 5 8 -5 11 -4 7 2 -3 5 0 10 8 10 8 0 13 -5 12 -11
-1 -6 4 -10 11 -8 8 1 11 -2 8 -7 -4 -5 -2 -12 3 -15 23 -15 18 13 -7 38 l-28
26 -28 -29z"/>
<path d="M7756 1821 c-17 -18 -24 -31 -17 -35 10 -7 15 0 12 17 0 4 5 6 12 5
6 -2 11 2 10 8 -1 6 4 11 12 11 8 0 13 -5 12 -11 -1 -6 4 -10 11 -8 8 1 11 -2
8 -7 -4 -5 -2 -12 3 -15 23 -15 18 13 -7 38 l-28 26 -28 -29z"/>
<path d="M7856 1801 c-17 -18 -24 -31 -17 -35 10 -7 15 0 12 17 0 4 5 6 12 5
6 -2 11 2 10 8 -1 6 5 11 13 11 8 0 12 -3 9 -5 -3 -3 1 -12 8 -21 10 -14 10
-14 -5 -3 -20 16 -34 -1 -14 -17 10 -9 16 -8 26 4 7 8 16 13 20 10 4 -2 17 6
29 19 13 13 18 27 13 30 -5 3 -17 -3 -27 -14 -18 -20 -18 -20 -40 0 l-21 20
-28 -29z"/>
<path d="M7656 1802 c-3 -5 3 -17 13 -26 11 -10 22 -13 25 -8 3 5 -3 17 -13
26 -11 10 -22 13 -25 8z"/>
<path d="M7695 1801 c-6 -10 0 -14 16 -13 3 1 6 -5 6 -13 0 -8 -3 -13 -6 -12
-3 1 -7 -2 -8 -8 -2 -5 8 -10 22 -10 14 0 25 5 24 10 -1 6 -5 9 -11 7 -5 -1
-7 2 -4 6 3 5 -3 17 -13 26 -13 11 -21 14 -26 7z"/>
<path d="M7766 1791 c-11 -12 -14 -21 -7 -26 10 -6 14 0 13 16 -1 3 5 6 13 6
8 0 13 -5 12 -11 -1 -6 4 -10 11 -8 8 1 11 -2 8 -7 -4 -5 -2 -12 3 -15 23 -15
18 14 -8 38 -27 26 -28 26 -45 7z"/>
<path d="M7647 1753 c-16 -16 -15 -19 10 -45 l26 -28 11 23 c7 12 18 22 26 22
22 1 43 -23 36 -42 -5 -13 -4 -14 9 -3 11 9 12 16 5 25 -8 9 -8 15 0 20 6 3 8
10 6 14 -3 4 1 8 9 8 8 0 13 -3 10 -5 -3 -3 1 -12 8 -21 10 -14 10 -14 -4 -4
-20 16 -33 5 -17 -14 9 -11 14 -11 29 3 11 10 19 13 19 9 0 -5 11 2 25 15 13
12 22 27 19 32 -4 5 -16 0 -28 -11 l-23 -21 -18 20 c-14 15 -21 17 -32 9 -7
-6 -13 -18 -13 -26 0 -9 -5 -11 -12 -6 -7 4 -20 8 -29 8 -9 0 -26 8 -36 17
-18 17 -20 17 -36 1z m29 -30 c0 -15 -3 -20 -10 -13 -14 14 -16 37 -2 37 7 0
12 -11 12 -24z"/>
<path d="M4037 2543 c-11 -10 -8 -43 3 -43 6 0 10 11 10 25 0 26 -2 29 -13 18z"/>
<path d="M3912 2413 c8 -9 14 -10 23 -3 10 8 15 8 21 -1 5 -8 3 -9 -6 -4 -9 6
-11 4 -5 -5 6 -9 4 -11 -5 -5 -9 5 -11 4 -6 -4 5 -7 2 -10 -6 -9 -7 2 -12 -2
-11 -8 1 -6 -4 -11 -12 -11 -8 0 -12 3 -10 7 3 4 -4 15 -14 24 -11 10 -22 13
-25 8 -3 -6 -14 -9 -24 -7 -19 3 -84 -53 -76 -67 3 -4 10 -6 15 -2 5 3 7 10 3
15 -3 5 0 8 8 7 7 -2 12 3 11 10 -2 6 3 11 10 10 6 -2 11 2 10 8 -1 6 4 11 12
11 8 0 13 -4 12 -8 -1 -4 3 -6 8 -5 6 0 9 4 8 7 -1 3 4 6 12 6 8 0 12 -4 10
-8 -4 -6 22 -34 31 -34 2 0 20 16 40 35 20 19 34 30 30 23 -7 -14 10 -28 18
-14 9 15 -24 35 -60 36 -27 1 -31 -1 -22 -12z"/>
<path d="M3896 2401 c-4 -5 -2 -12 3 -15 5 -4 12 -2 15 3 4 5 2 12 -3 15 -5 4
-12 2 -15 -3z"/>
<path d="M3776 2321 c-30 -30 -44 -51 -37 -55 10 -7 15 -1 12 17 0 4 5 6 12 5
6 -2 11 3 10 10 -2 6 3 11 10 10 6 -2 11 3 10 10 -2 6 3 11 10 10 6 -2 11 3 9
10 -1 8 2 11 7 8 5 -4 12 -2 15 3 4 5 3 12 -2 15 -5 3 -30 -17 -56 -43z"/>
<path d="M3806 2311 c-31 -31 -53 -61 -49 -65 5 -4 1 -6 -7 -4 -8 2 -14 -3
-12 -10 1 -6 -4 -11 -10 -10 -7 2 -12 -3 -10 -9 1 -7 -4 -12 -10 -10 -7 1 -12
-4 -10 -11 1 -8 -2 -11 -7 -8 -5 4 -12 2 -15 -3 -4 -5 -3 -12 2 -15 5 -3 52
39 106 93 54 54 94 101 89 104 -5 3 -35 -20 -67 -52z"/>
<path d="M3686 2271 c-11 -12 -14 -21 -7 -26 10 -6 14 0 13 16 -1 3 5 6 12 6
7 0 13 -6 13 -13 0 -7 -5 -12 -11 -11 -6 1 -10 -4 -8 -11 1 -8 -1 -11 -6 -8
-10 6 -109 -94 -108 -109 2 -18 17 -35 27 -29 5 3 7 10 3 15 -3 5 -9 7 -13 5
-4 -3 -8 1 -8 9 0 8 5 13 11 12 6 -1 10 4 9 11 -2 6 3 11 10 10 6 -2 11 3 10
10 -2 6 3 11 10 10 6 -2 11 3 9 10 -1 8 1 11 6 8 5 -3 25 12 46 33 35 36 36
38 18 54 -18 16 -20 16 -36 -2z"/>
<path d="M3636 2141 c-17 -18 -24 -31 -17 -35 10 -7 15 0 12 17 0 4 5 6 12 5
6 -2 11 2 10 8 -1 6 4 11 11 11 7 0 13 -6 13 -13 0 -7 -5 -10 -10 -7 -6 4 -7
1 -2 -7 6 -9 4 -11 -5 -5 -9 6 -11 4 -5 -5 5 -8 4 -11 -2 -7 -5 4 -22 -7 -37
-22 -18 -18 -24 -31 -17 -35 11 -7 15 0 12 17 -1 5 4 5 10 1 8 -5 9 -3 4 7 -5
8 -4 10 0 6 12 -10 16 -39 5 -32 -5 3 -11 1 -14 -4 -12 -19 12 -20 28 -2 12
14 14 21 6 26 -8 5 -1 18 19 39 30 31 31 33 13 49 -17 16 -20 15 -46 -12z"/>
<path d="M3566 2071 c-11 -13 -14 -21 -7 -26 11 -6 15 1 12 18 -1 5 3 6 8 3 5
-4 12 -2 15 3 12 19 -12 20 -28 2z"/>
<path d="M3572 2038 c-7 -7 -12 -18 -12 -26 0 -7 -4 -11 -9 -7 -6 3 -8 -3 -6
-15 2 -11 -1 -22 -6 -25 -5 -4 -6 -12 -2 -18 4 -7 8 -41 8 -77 0 -36 4 -71 8
-77 5 -7 5 -13 1 -13 -4 0 5 -13 21 -30 15 -16 32 -27 37 -24 6 4 -5 21 -22
39 -21 22 -28 35 -20 40 8 5 8 10 0 20 -8 10 -8 15 0 20 8 5 8 10 0 20 -8 10
-8 15 0 20 8 5 8 10 0 20 -8 10 -8 15 0 20 8 5 8 11 1 19 -8 9 -5 18 9 31 19
17 18 41 -1 29 -5 -3 -7 -9 -5 -13 3 -4 -1 -8 -9 -8 -13 0 -13 3 0 17 8 9 13
19 10 22 -3 2 2 5 10 5 8 0 12 -3 10 -7 -3 -4 4 -15 14 -24 27 -25 24 8 -4 34
-16 15 -24 17 -33 8z m-15 -83 c0 -8 -4 -12 -9 -9 -5 3 -6 10 -3 15 9 13 12
11 12 -6z"/>
<path d="M7260 2306 c0 -2 8 -10 18 -17 15 -13 16 -12 3 4 -13 16 -21 21 -21
13z"/>
<path d="M3537 2233 c-10 -10 -8 -45 2 -39 11 7 21 46 12 46 -4 0 -11 -3 -14
-7z"/>
<path d="M3963 2160 c0 -25 2 -35 4 -22 2 12 2 32 0 45 -2 12 -4 2 -4 -23z"/>
<path d="M3943 2145 c0 -27 2 -38 4 -22 2 15 2 37 0 50 -2 12 -4 0 -4 -28z"/>
<path d="M3923 2135 c0 -27 2 -38 4 -22 2 15 2 37 0 50 -2 12 -4 0 -4 -28z"/>
<path d="M3963 1865 c0 -27 2 -38 4 -22 2 15 2 37 0 50 -2 12 -4 0 -4 -28z"/>
<path d="M3943 1855 c0 -27 2 -38 4 -22 2 15 2 37 0 50 -2 12 -4 0 -4 -28z"/>
<path d="M3923 1845 c0 -27 2 -38 4 -22 2 15 2 37 0 50 -2 12 -4 0 -4 -28z"/>
<path d="M6997 2142 l-27 -28 28 -27 28 -27 27 28 27 28 -28 27 -28 27 -27
-28z m40 -6 c-1 -6 3 -10 9 -9 6 1 11 -4 11 -12 0 -8 -5 -13 -11 -12 -6 1 -10
-3 -9 -9 1 -6 -4 -11 -12 -11 -8 0 -13 5 -12 11 1 6 -3 10 -9 9 -6 -1 -11 4
-11 12 0 8 5 13 11 12 6 -1 10 3 9 9 -1 6 4 11 12 11 8 0 13 -5 12 -11z"/>
<path d="M7016 2121 c-4 -5 -2 -12 3 -15 5 -4 12 -2 15 3 4 5 2 12 -3 15 -5 4
-12 2 -15 -3z"/>
<path d="M7221 2126 c-17 -18 -29 -35 -26 -37 3 -3 -1 -6 -9 -6 -8 0 -14 3
-13 6 1 3 -2 6 -8 6 -5 0 -9 -3 -7 -7 1 -5 -1 -7 -5 -5 -5 1 -8 -2 -8 -8 0 -5
3 -9 8 -7 4 1 6 -1 5 -5 -2 -5 2 -8 7 -8 6 0 9 4 7 8 -1 5 1 6 6 3 13 -8 64
48 55 60 -4 5 29 -26 74 -70 49 -47 83 -74 87 -67 7 10 1 14 -15 13 -3 -1 -6
5 -6 12 0 7 6 13 13 13 7 0 12 -5 11 -11 -1 -6 4 -10 11 -8 8 1 11 -1 8 -6 -3
-5 8 -21 23 -36 16 -15 31 -24 34 -19 4 6 -16 31 -42 57 -33 33 -51 44 -56 36
-5 -8 -25 5 -61 41 -29 29 -51 56 -48 60 2 4 0 10 -4 13 -5 3 -23 -10 -41 -28z
m50 -13 c13 -16 12 -17 -3 -4 -10 7 -18 15 -18 17 0 8 8 3 21 -13z m80 -80
c13 -16 12 -17 -3 -4 -10 7 -18 15 -18 17 0 8 8 3 21 -13z"/>
<path d="M7166 2032 c-15 -17 -14 -20 13 -46 16 -15 31 -23 35 -18 6 10 -27
45 -36 37 -2 -3 -5 2 -5 10 0 8 4 12 8 9 4 -2 10 0 13 5 12 18 -11 20 -28 3z"/>
<path d="M7496 1962 c-7 -11 68 -85 77 -76 10 11 -24 45 -37 37 -6 -4 -5 1 3
10 7 9 11 18 7 18 -3 1 -9 2 -13 3 -5 1 -13 5 -20 9 -6 4 -14 3 -17 -1z"/>
<path d="M7656 2161 c-4 -5 -2 -12 3 -15 5 -4 12 -2 15 3 4 5 2 12 -3 15 -5 4
-12 2 -15 -3z"/>
<path d="M7695 2161 c-3 -5 -2 -12 3 -15 5 -3 9 1 9 9 0 17 -3 19 -12 6z"/>
<path d="M2759 2068 c-5 -18 -6 -38 -1 -34 7 8 12 36 6 36 -2 0 -4 -1 -5 -2z"/>
<path d="M2690 1996 c-6 -8 -20 -13 -31 -11 -12 3 -19 -2 -19 -12 0 -12 3 -13
13 -4 10 8 22 1 52 -29 21 -21 42 -37 48 -33 5 3 -8 23 -30 46 -21 22 -33 37
-26 33 14 -7 28 10 14 18 -5 3 -14 -1 -21 -8z m21 -43 c13 -16 12 -17 -3 -4
-17 13 -22 21 -14 21 2 0 10 -8 17 -17z"/>
<path d="M2896 1841 c-4 -5 -2 -12 3 -15 5 -4 12 -2 15 3 4 5 2 12 -3 15 -5 4
-12 2 -15 -3z"/>
<path d="M5828 1719 c10 -13 9 -19 -3 -29 -16 -13 -11 -35 6 -24 5 3 7 9 5 13
-3 4 1 8 8 8 7 0 13 -6 13 -13 0 -7 -3 -12 -6 -11 -3 1 -6 -2 -6 -8 0 -5 5 -9
10 -7 6 2 -2 -9 -18 -25 -15 -16 -24 -33 -20 -38 5 -4 3 -5 -3 -2 -6 4 -19 -2
-29 -13 -13 -14 -22 -17 -31 -9 -8 7 -14 7 -19 -1 -3 -6 -10 -8 -15 -5 -5 3
-12 0 -16 -7 -4 -7 -4 -10 1 -6 5 5 13 -2 19 -13 10 -20 29 -29 24 -11 -2 4
-6 6 -9 5 -3 -1 -6 4 -6 11 0 7 6 13 13 13 7 0 12 -3 11 -6 -1 -3 3 -7 8 -8 6
-2 10 1 10 7 0 5 6 15 14 22 9 8 11 9 7 1 -4 -7 7 -18 29 -29 42 -20 43 -29 9
-75 -18 -24 -25 -28 -22 -14 2 12 -2 19 -9 18 -7 -2 -12 0 -12 5 4 26 -5 20
-33 -23 -30 -45 -31 -48 -13 -61 16 -12 20 -11 34 9 9 12 15 26 13 30 -1 5 2
6 8 2 8 -5 7 -11 -1 -21 -6 -8 -8 -14 -5 -14 4 0 0 -7 -8 -15 -13 -13 -19 -14
-38 -3 -13 7 -27 11 -32 10 -4 -2 4 18 18 43 25 42 28 73 5 59 -5 -3 -7 -10
-3 -15 3 -5 0 -8 -8 -7 -7 2 -12 -3 -10 -9 1 -7 -1 -12 -5 -10 -5 1 -8 -2 -8
-8 0 -5 3 -9 8 -8 12 5 8 -4 -9 -17 -8 -8 -14 -9 -12 -4 2 5 -1 9 -7 9 -5 0
-10 -12 -9 -27 0 -15 -4 -26 -10 -25 -5 1 -10 -3 -11 -10 0 -14 -13 -28 -26
-28 -5 0 -9 -4 -8 -10 1 -5 6 -9 12 -7 6 2 4 -5 -6 -16 -9 -10 -14 -22 -10
-26 5 -4 3 -6 -3 -4 -7 1 -12 -1 -12 -7 0 -5 3 -9 7 -8 4 1 8 -4 8 -12 0 -8
-4 -12 -9 -9 -4 3 -8 1 -8 -5 0 -5 9 -13 20 -16 11 -3 20 -10 20 -14 0 -4 10
-7 23 -7 12 1 21 -4 20 -10 -1 -6 5 -11 14 -11 11 0 6 9 -16 29 -17 15 -36 40
-42 55 -6 15 -7 24 -3 20 4 -4 13 7 18 25 13 38 53 50 79 24 22 -23 30 -20 46
17 13 29 61 95 61 84 0 -3 -7 -17 -15 -33 -13 -25 -12 -30 3 -45 9 -9 19 -15
21 -13 2 2 12 -3 21 -11 15 -13 19 -12 43 13 29 30 31 58 8 86 -7 9 -10 16 -6
16 4 0 3 6 -2 13 -6 6 -9 20 -8 30 2 10 -3 17 -12 17 -14 0 -14 2 0 18 10 10
17 23 17 29 0 6 8 17 18 24 15 13 16 12 4 -3 -16 -21 1 -33 18 -13 7 8 9 15 5
15 -4 0 -1 7 6 16 19 23 21 48 5 69 -10 14 -15 15 -21 5 -5 -8 -4 -11 3 -6 12
7 10 -20 -3 -31 -4 -4 -5 -3 -1 4 3 6 2 14 -4 18 -6 4 -8 10 -5 15 3 4 -2 14
-11 21 -12 9 -20 10 -33 2 -14 -9 -18 -8 -18 3 0 7 5 10 10 7 6 -4 7 -1 3 6
-5 7 -11 10 -14 7 -3 -4 -17 4 -31 16 -14 13 -20 16 -13 7z m93 -91 c4 -43
-17 -74 -37 -57 -17 14 -18 41 -2 57 16 16 38 15 39 0z m29 -38 c0 -5 -5 -10
-11 -10 -5 0 -7 5 -4 10 3 6 8 10 11 10 2 0 4 -4 4 -10z m-82 -139 c-7 -12
-16 -21 -21 -21 -4 0 0 11 10 24 22 29 30 27 11 -3z"/>
<path d="M5889 1623 c0 -5 -2 -16 -4 -26 -2 -10 2 -17 8 -14 15 5 22 47 8 47
-6 0 -11 -3 -12 -7z"/>
<path d="M5806 1631 c-10 -11 -13 -22 -8 -25 5 -3 17 3 26 13 10 11 13 22 8
25 -5 3 -17 -3 -26 -13z"/>
<path d="M5994 1625 c-7 -14 -8 -27 -2 -33 10 -10 -48 -75 -61 -67 -5 2 -14
-1 -20 -8 -8 -10 -7 -14 4 -14 8 0 11 5 8 10 -4 6 -1 7 6 3 9 -6 9 -12 -3 -24
-19 -22 -18 -33 2 -56 13 -15 13 -17 2 -11 -11 6 -10 3 3 -12 9 -11 14 -23 10
-27 -5 -4 -1 -6 7 -4 16 3 28 20 64 96 30 62 33 106 8 144 l-17 26 -11 -23z"/>
<path d="M5969 1573 c-13 -16 -12 -17 4 -4 16 13 21 21 13 21 -2 0 -10 -8 -17
-17z"/>
<path d="M5783 1546 c4 -5 -2 -20 -14 -32 -12 -13 -16 -24 -10 -28 5 -4 13 -2
16 4 5 8 11 8 19 1 9 -8 18 -6 30 8 11 12 14 21 7 26 -6 3 -11 3 -11 -1 0 -4
-10 1 -22 12 -13 10 -20 15 -15 10z m35 -43 c-5 -7 -14 -10 -19 -7 -16 10 -9
23 10 21 15 -1 17 -4 9 -14z"/>
<path d="M5710 1496 c-6 -8 -20 -13 -31 -11 -11 2 -17 0 -15 -4 3 -5 -3 -16
-13 -26 -11 -9 -18 -25 -16 -36 2 -10 -1 -18 -7 -16 -5 1 -15 -6 -21 -15 -9
-13 -7 -21 7 -37 21 -23 44 -18 25 5 -6 7 -15 12 -18 9 -4 -2 -8 2 -8 9 0 7 6
13 13 13 7 0 11 -4 8 -8 -8 -13 13 -19 24 -6 15 17 13 29 -6 52 -14 16 -14 17
-1 8 13 -10 22 -6 53 26 21 21 33 41 28 45 -5 3 -15 -1 -22 -8z m-15 -26 c4
-6 1 -9 -7 -8 -7 2 -12 -2 -11 -8 1 -6 -5 -11 -13 -11 -11 0 -11 4 3 19 19 21
20 21 28 8z"/>
<path d="M5414 1426 c-3 -14 -3 -30 1 -36 11 -17 35 8 35 36 0 32 -28 31 -36
0z"/>
<path d="M5584 1329 c-19 -21 -31 -95 -14 -84 6 3 10 -1 10 -10 0 -9 5 -13 11
-10 7 5 4 14 -8 28 -10 11 -13 18 -7 14 15 -9 49 29 34 38 -8 5 -8 10 0 20 18
22 -6 26 -26 4z m12 -22 c0 -13 -5 -24 -12 -24 -13 0 -13 15 -1 35 11 17 13
15 13 -11z"/>
<path d="M5930 1315 c-7 -9 -10 -18 -7 -21 3 -3 10 4 17 15 13 25 8 27 -10 6z"/>
<path d="M5700 1269 c-16 -29 -5 -56 15 -39 17 14 20 46 6 55 -6 3 -15 -4 -21
-16z"/>
<path d="M5803 1215 c0 -6 6 -12 12 -12 6 0 12 6 12 12 0 6 -6 12 -12 12 -6 0
-12 -6 -12 -12z"/>
<path d="M5743 1195 c0 -6 6 -12 12 -12 6 0 12 6 12 12 0 6 -6 12 -12 12 -6 0
-12 -6 -12 -12z"/>
<path d="M5498 1151 c-16 -10 -25 -21 -20 -26 4 -4 2 -5 -4 -2 -6 4 -37 -9
-69 -28 -31 -19 -59 -35 -61 -35 -3 0 -23 -12 -47 -27 -23 -15 -62 -38 -87
-52 -25 -13 -48 -29 -52 -35 -4 -6 -8 -7 -8 -2 0 5 -8 2 -17 -6 -10 -8 -55
-35 -100 -59 -145 -77 -145 -65 -2 -149 68 -40 136 -81 151 -91 15 -11 29 -19
31 -19 3 0 60 -32 128 -72 68 -39 138 -79 154 -88 17 -9 75 -43 130 -75 55
-31 109 -57 120 -57 11 0 58 22 105 49 47 27 216 126 375 218 160 93 303 177
318 188 34 23 31 28 -57 76 -75 42 -189 107 -261 151 -27 16 -57 33 -65 37 -8
4 -42 23 -75 43 -101 61 -104 63 -98 40 3 -11 11 -25 19 -31 8 -6 14 -17 14
-24 0 -7 14 -18 30 -25 17 -7 30 -16 30 -20 0 -5 8 -7 17 -6 9 2 27 -6 40 -18
13 -11 31 -21 40 -22 10 -2 19 -8 21 -14 2 -5 7 -8 12 -5 20 12 0 -60 -21 -77
-21 -16 -69 -41 -76 -39 -2 1 -14 -9 -28 -21 -14 -12 -32 -23 -41 -24 -8 -1
-26 -10 -39 -18 -14 -9 -27 -16 -30 -16 -3 0 -11 -4 -18 -10 -20 -18 -81 -54
-96 -56 -8 -2 -18 -9 -22 -16 -5 -7 -9 -9 -9 -4 0 5 -7 2 -16 -5 -50 -41 -70
-38 -181 34 -24 15 -46 27 -51 27 -4 0 -14 6 -20 13 -7 6 -16 12 -20 12 -4 1
-27 14 -52 30 -25 16 -47 30 -50 30 -3 0 -25 14 -50 30 -25 15 -46 27 -47 24
-1 -2 -13 7 -27 20 -33 31 -35 75 -3 93 12 7 24 13 27 13 3 0 19 8 35 17 17 9
50 28 75 41 25 14 50 35 56 47 7 12 17 27 23 33 13 13 15 27 4 26 -5 0 -20 -8
-35 -18z"/>
<path d="M5503 1074 c0 -7 4 -11 9 -8 4 3 8 -4 8 -14 0 -25 25 -74 33 -65 4 3
7 -1 7 -11 0 -9 4 -15 8 -12 5 3 21 -1 35 -9 15 -8 31 -15 35 -17 4 -2 6 -6 5
-9 -1 -3 4 -6 12 -6 8 0 12 4 9 8 -2 4 0 11 6 14 6 4 9 1 8 -6 -2 -10 21 -13
94 -14 53 0 96 3 95 8 -3 14 44 19 58 7 9 -8 15 -8 20 0 4 6 3 9 -2 8 -4 -2
-8 2 -8 7 0 6 5 9 10 7 6 -2 7 0 2 4 -8 8 22 46 32 40 3 -2 6 10 6 28 0 19 -4
33 -12 33 -6 0 -11 -5 -10 -11 1 -6 -4 -10 -12 -8 -12 3 -12 0 -2 -12 11 -13
10 -15 -8 -11 -13 2 -21 -1 -21 -10 0 -8 -8 -12 -20 -10 -11 2 -19 -1 -17 -8
1 -7 -14 -11 -39 -12 -22 0 -49 -7 -59 -15 -13 -10 -16 -11 -11 -2 6 10 3 13
-10 12 -11 -1 -21 -1 -24 0 -3 1 -28 3 -56 3 -28 1 -58 8 -68 16 -9 7 -16 10
-16 6 0 -5 -8 -1 -18 8 -10 10 -22 14 -25 10 -4 -3 -7 1 -7 11 0 11 -4 15 -12
10 -8 -5 -8 -2 1 10 12 15 12 17 0 14 -8 -2 -13 2 -12 8 1 6 -4 11 -11 11 -7
0 -13 -6 -13 -13z"/>
<path d="M5454 1038 c-3 -5 -9 -6 -14 -3 -4 3 -13 -2 -20 -10 -7 -8 -16 -13
-20 -10 -4 3 -14 -3 -21 -12 -11 -13 -11 -15 -1 -9 9 5 15 1 19 -13 7 -28 2
-35 -24 -37 -21 -1 -29 13 -23 41 1 6 -10 -1 -24 -14 -28 -26 -34 -37 -13 -25
9 6 9 5 -1 -8 -15 -18 2 -37 30 -33 10 2 16 -2 15 -8 -1 -7 8 -11 21 -11 12 1
20 -1 17 -4 -2 -3 0 -11 6 -19 10 -11 15 -11 27 -1 9 7 13 8 9 2 -4 -6 2 -19
13 -29 11 -10 20 -15 20 -11 0 4 12 -4 27 -18 15 -14 30 -23 34 -21 4 3 12 -2
19 -10 7 -8 16 -13 20 -10 4 2 15 -4 25 -15 14 -16 21 -17 32 -8 11 9 13 8 11
-2 -3 -12 25 -33 90 -66 31 -16 34 -16 52 1 11 10 20 15 20 10 0 -4 6 -3 13 2
10 9 46 29 152 87 11 6 27 16 35 22 8 7 43 26 78 44 34 18 65 36 68 41 3 5 9
7 13 4 16 -9 57 56 44 69 -4 3 -12 1 -20 -5 -7 -6 -13 -8 -13 -4 0 5 -10 0
-22 -11 -13 -12 -18 -13 -13 -4 8 13 6 13 -8 1 -9 -7 -15 -17 -12 -21 3 -5 -3
-7 -12 -5 -10 1 -26 -5 -36 -13 -10 -9 -17 -12 -15 -7 2 6 -1 10 -7 10 -5 0
-9 -3 -7 -8 1 -4 -4 -6 -10 -5 -7 2 -12 -3 -10 -10 1 -6 -4 -11 -10 -10 -7 2
-11 -4 -10 -12 2 -8 0 -12 -4 -7 -4 4 -16 -1 -26 -10 -11 -10 -18 -12 -16 -6
2 6 -1 11 -7 11 -5 0 -9 -4 -7 -9 1 -5 -4 -8 -10 -7 -7 2 -11 -4 -10 -12 2 -8
0 -12 -4 -8 -4 4 -14 2 -22 -5 -8 -6 -25 -12 -36 -12 -12 -1 -20 -6 -18 -13 1
-7 -4 -11 -10 -10 -7 2 -11 -4 -10 -12 2 -8 0 -12 -4 -8 -4 4 -14 2 -22 -4
-18 -16 -101 -18 -99 -4 1 6 -4 10 -10 9 -7 -2 -12 3 -10 10 1 6 -3 11 -9 10
-6 -1 -11 4 -11 12 0 8 3 13 6 12 3 -1 6 3 6 8 0 6 -3 9 -7 8 -5 -2 -7 0 -5 5
1 4 -2 7 -8 7 -5 0 -9 -3 -8 -6 1 -3 -4 -6 -12 -6 -8 0 -13 3 -12 6 1 3 -2 6
-8 6 -5 0 -9 -3 -8 -6 1 -3 -4 -6 -12 -6 -8 0 -13 5 -12 11 1 6 -4 10 -10 9
-7 -2 -12 3 -10 10 1 6 -4 11 -10 10 -7 -2 -12 0 -10 5 1 4 -2 7 -8 7 -5 0 -9
-3 -8 -6 1 -3 -4 -6 -11 -6 -7 0 -13 6 -13 13 0 7 3 12 6 11 3 -1 6 3 6 8 0 6
-3 9 -7 7 -5 -1 -7 2 -5 7 1 5 -2 9 -8 9 -5 0 -9 -3 -8 -7 1 -4 -4 -8 -12 -8
-8 0 -13 3 -12 6 1 3 -2 7 -8 8 -5 0 -9 -2 -8 -6 1 -4 -4 -8 -12 -8 -8 0 -13
5 -12 11 1 6 -4 10 -10 8 -7 -1 -12 4 -10 10 1 7 -4 12 -11 10 -8 -1 -11 2 -8
7 4 5 15 8 25 6 13 -2 17 3 17 18 -1 12 -5 27 -9 34 -4 6 -3 15 3 18 6 4 9 3
8 -2 -2 -4 0 -9 5 -10 17 -6 19 -2 6 15 -13 15 -12 16 4 3 16 -12 22 -9 18 12
-1 5 4 5 10 1 8 -5 9 -3 4 7 -5 8 -4 11 1 6 5 -5 9 -14 9 -20 1 -7 7 -11 14
-9 7 1 10 -2 5 -9 -5 -8 -3 -9 5 -5 9 6 9 12 -3 25 -9 10 -14 20 -11 23 3 2
-2 5 -10 5 -9 0 -18 -4 -21 -9z"/>
<path d="M6005 1009 c2 -9 -6 -26 -18 -36 -14 -12 -17 -13 -9 -2 9 13 9 16 -2
16 -8 0 -13 -8 -11 -18 5 -24 -24 -46 -57 -44 -15 1 -26 -3 -25 -8 3 -13 -144
-18 -160 -5 -6 5 -14 5 -17 0 -7 -11 -82 -7 -79 5 1 5 -11 8 -27 7 -17 -1 -28
3 -27 9 1 6 -5 11 -13 12 -8 1 -14 6 -13 12 2 7 -6 10 -18 8 -17 -3 -19 -1 -9
10 9 11 7 13 -7 10 -10 -1 -25 4 -34 11 -14 12 -18 11 -35 -7 -10 -12 -19 -31
-19 -43 -1 -12 -6 -20 -15 -18 -11 3 -11 0 0 -13 12 -14 15 -14 31 1 17 15 17
40 0 30 -4 -3 -8 1 -8 9 0 8 5 13 11 12 6 -1 10 3 9 9 -1 6 4 11 12 11 8 0 12
-4 9 -8 -2 -4 0 -11 6 -14 8 -5 7 -11 -1 -21 -10 -13 -6 -18 14 -15 4 0 6 -5
5 -11 -2 -7 3 -12 10 -10 6 1 11 -4 10 -10 -2 -7 3 -12 10 -10 6 1 11 -4 10
-10 -2 -7 3 -12 10 -10 8 1 11 -2 8 -6 -3 -5 3 -17 13 -26 13 -11 21 -14 26
-7 6 10 0 14 -16 13 -3 -1 -6 5 -6 12 0 7 6 13 13 13 7 0 12 -5 11 -11 -1 -6
4 -10 11 -9 6 2 11 0 10 -5 -2 -4 2 -7 7 -7 6 0 9 3 8 6 -1 3 4 6 12 6 8 0 12
-3 10 -7 -3 -4 4 -15 15 -25 14 -12 17 -22 10 -30 -7 -8 -2 -19 17 -36 14 -13
23 -19 20 -13 -4 6 5 21 18 34 23 21 26 48 4 34 -5 -3 -7 -9 -4 -14 3 -5 -4
-7 -15 -5 -11 2 -18 0 -15 -5 3 -5 2 -11 -3 -14 -5 -3 -8 9 -8 27 1 18 -4 31
-10 30 -6 -1 -11 4 -11 11 0 7 6 13 13 13 7 0 12 -5 11 -11 -1 -6 4 -10 10 -9
7 2 12 -1 10 -6 -1 -5 3 -9 8 -9 6 0 9 3 8 7 -1 4 4 8 12 8 8 0 13 -4 12 -8
-1 -4 3 -7 8 -7 6 0 9 3 8 7 -1 4 4 8 12 8 8 0 13 -4 12 -8 -1 -4 3 -6 8 -6 6
1 9 6 7 10 -1 5 2 6 7 3 5 -3 14 0 20 8 7 8 20 13 29 11 9 -1 24 4 33 11 13
12 16 12 16 -1 0 -8 -5 -11 -10 -8 -6 4 -7 1 -2 -7 6 -9 4 -11 -5 -5 -9 5 -11
4 -6 -4 5 -7 2 -10 -6 -9 -7 2 -12 -2 -11 -8 1 -6 -4 -11 -12 -11 -8 0 -12 4
-9 8 2 4 0 10 -5 13 -17 11 -21 -11 -4 -25 9 -8 17 -14 19 -14 9 0 73 69 69
75 -2 4 2 7 10 7 8 0 13 -4 12 -8 -1 -4 3 -6 8 -5 6 0 9 4 8 9 -2 4 3 6 10 5
6 -2 11 3 10 10 -2 6 3 11 10 10 6 -2 11 3 10 10 -2 6 1 11 6 10 5 -2 9 2 9 7
0 6 -3 9 -7 8 -4 -1 -8 4 -8 12 0 8 3 13 6 12 3 -1 6 3 6 8 0 6 -4 9 -10 7 -5
-2 -1 6 9 17 17 19 15 26 -7 22 -5 -1 -6 3 -2 9 5 8 11 8 19 1 7 -6 17 -7 21
-3 5 4 5 1 0 -7 -6 -10 -4 -12 5 -6 9 6 11 4 5 -5 -5 -8 -4 -11 2 -7 5 3 10 0
10 -8 0 -8 -4 -12 -8 -9 -4 2 -10 0 -13 -5 -11 -16 11 -22 24 -6 7 8 15 13 19
11 4 -3 7 6 7 18 0 16 -5 23 -15 21 -9 -1 -22 2 -30 8 -7 6 -24 12 -36 13 -17
0 -22 -4 -20 -17z m90 -18 c3 -5 2 -12 -3 -15 -5 -3 -9 1 -9 9 0 17 3 19 12 6z
m-365 -215 c0 -2 -8 -10 -17 -17 -16 -13 -17 -12 -4 4 13 16 21 21 21 13z"/>
<path d="M5626 998 c3 -5 10 -6 15 -3 13 9 11 12 -6 12 -8 0 -12 -4 -9 -9z"/>
<path d="M6036 981 c-4 -5 -2 -12 3 -15 5 -4 12 -2 15 3 4 5 2 12 -3 15 -5 4
-12 2 -15 -3z"/>
<path d="M5456 961 c-4 -5 -2 -12 3 -15 5 -4 12 -2 15 3 4 5 2 12 -3 15 -5 4
-12 2 -15 -3z"/>
<path d="M6036 942 c-3 -5 3 -17 13 -26 13 -12 21 -14 26 -6 3 5 10 8 15 5 15
-9 20 12 6 24 -10 9 -16 9 -21 1 -5 -8 -10 -8 -20 0 -8 6 -16 7 -19 2z m44
-18 c0 -8 -19 -13 -24 -6 -3 5 1 9 9 9 8 0 15 -2 15 -3z"/>
<path d="M5456 921 c-4 -5 -2 -12 3 -15 5 -4 12 -2 15 3 4 5 2 12 -3 15 -5 4
-12 2 -15 -3z"/>
<path d="M5856 828 c3 -5 10 -6 15 -3 13 9 11 12 -6 12 -8 0 -12 -4 -9 -9z"/>
<path d="M5765 790 c-16 -18 -14 -25 8 -21 4 0 7 -7 7 -16 0 -13 6 -11 30 12
27 26 33 58 6 36 -8 -7 -16 -7 -22 -1 -7 7 -17 4 -29 -10z m35 -17 c0 -13 -3
-13 -15 -3 -8 7 -12 16 -9 21 8 13 24 1 24 -18z"/>
<path d="M3176 1681 c-7 -10 29 -44 51 -47 10 -2 6 7 -13 27 -31 32 -31 32
-38 20z"/>
<path d="M3285 1599 c10 -10 22 -16 27 -13 12 8 -6 27 -28 30 -14 2 -14 0 1
-17z"/>
<path d="M3396 1581 c-4 -5 -2 -12 3 -15 5 -4 12 -2 15 3 4 5 2 12 -3 15 -5 4
-12 2 -15 -3z"/>
<path d="M5534 1618 l-19 -23 23 19 c12 11 22 21 22 23 0 8 -8 2 -26 -19z"/>
<path d="M3538 1624 c-5 -4 -8 -16 -8 -28 0 -14 3 -17 11 -9 6 6 9 19 7 28 -1
9 -6 13 -10 9z"/>
<path d="M9034 1523 c-13 -12 -24 -19 -24 -16 0 3 -8 -1 -17 -10 -10 -8 -22
-16 -28 -17 -5 -1 -9 -6 -7 -12 1 -5 -2 -7 -7 -4 -5 4 -15 1 -23 -6 -7 -7 -20
-14 -28 -16 -8 -2 -17 -7 -20 -10 -3 -4 -11 -8 -19 -10 -8 -2 -26 -11 -40 -21
-14 -10 -50 -30 -78 -45 -29 -14 -53 -30 -53 -35 0 -5 12 -16 28 -24 15 -7
101 -56 192 -108 91 -53 172 -98 181 -101 16 -6 65 18 234 117 55 32 118 68
140 80 21 13 41 27 43 33 3 10 -53 46 -61 40 -1 -2 -13 7 -27 20 -13 12 -29
22 -36 22 -6 0 -17 7 -25 16 -7 8 -21 13 -31 11 -10 -3 -16 -1 -13 4 5 8 -50
42 -59 37 -2 -2 -16 8 -30 21 -14 14 -26 21 -26 16 0 -4 -8 -2 -17 6 -53 44
-110 49 -149 12z"/>
<path d="M1045 1240 c-16 -10 -36 -24 -42 -30 -7 -6 -13 -9 -13 -6 0 2 -39
-19 -87 -47 -49 -27 -116 -66 -150 -86 -286 -164 -285 -163 -271 -176 7 -7 29
-22 48 -33 19 -10 139 -79 265 -152 127 -73 245 -141 263 -151 18 -11 38 -19
45 -19 17 0 613 345 622 361 3 4 -25 25 -62 45 -38 21 -95 54 -128 74 -58 35
-80 48 -210 120 -33 18 -77 44 -97 57 -21 12 -40 23 -44 23 -3 0 -17 9 -31 20
-31 25 -68 25 -108 0z"/>
<path d="M8374 1203 c-11 -10 -26 -19 -34 -21 -8 -2 -17 -7 -20 -10 -3 -4 -23
-16 -44 -27 -22 -11 -41 -25 -43 -30 -4 -12 166 -115 189 -115 9 0 42 15 74
34 33 19 74 42 92 52 18 9 31 21 30 26 -6 16 -144 93 -160 90 -5 -1 -8 3 -8 8
0 17 -55 11 -76 -7z"/>
</g>
</svg>
